<?xml version="1.0" encoding="UTF-8" standalone="no"?>
<!DOCTYPE svg PUBLIC "-//W3C//DTD SVG 1.1//EN"
 "http://www.w3.org/Graphics/SVG/1.1/DTD/svg11.dtd">
<!-- Generated by graphviz version 2.38.0 (20140413.2041)
 -->
<!-- Title: snakemake_dag Pages: 1 -->
<svg width="220pt" height="260pt"
 viewBox="0.00 0.00 220.02 260.00" xmlns="http://www.w3.org/2000/svg" xmlns:xlink="http://www.w3.org/1999/xlink">
<g id="graph0" class="graph" transform="scale(1 1) rotate(0) translate(4 256)">
<title>snakemake_dag</title>
<polygon fill="white" stroke="none" points="-4,4 -4,-256 216.022,-256 216.022,4 -4,4"/>
<!-- 0 -->
<g id="node1" class="node"><title>0</title>
<path fill="none" stroke="#d85656" stroke-width="2" d="M82.0215,-36C82.0215,-36 52.0215,-36 52.0215,-36 46.0215,-36 40.0215,-30 40.0215,-24 40.0215,-24 40.0215,-12 40.0215,-12 40.0215,-6 46.0215,-0 52.0215,-0 52.0215,-0 82.0215,-0 82.0215,-0 88.0215,-0 94.0215,-6 94.0215,-12 94.0215,-12 94.0215,-24 94.0215,-24 94.0215,-30 88.0215,-36 82.0215,-36"/>
<text text-anchor="middle" x="67.0215" y="-15.5" font-family="sans" font-size="10.00">all</text>
</g>
<!-- 1 -->
<g id="node2" class="node"><title>1</title>
<path fill="none" stroke="#56d8a9" stroke-width="2" d="M86.0215,-180C86.0215,-180 48.0215,-180 48.0215,-180 42.0215,-180 36.0215,-174 36.0215,-168 36.0215,-168 36.0215,-156 36.0215,-156 36.0215,-150 42.0215,-144 48.0215,-144 48.0215,-144 86.0215,-144 86.0215,-144 92.0215,-144 98.0215,-150 98.0215,-156 98.0215,-156 98.0215,-168 98.0215,-168 98.0215,-174 92.0215,-180 86.0215,-180"/>
<text text-anchor="middle" x="67.0215" y="-159.5" font-family="sans" font-size="10.00">ksat_setup</text>
</g>
<!-- 1&#45;&gt;0 -->
<g id="edge3" class="edge"><title>1&#45;&gt;0</title>
<path fill="none" stroke="grey" stroke-width="2" d="M37.5169,-143.937C25.0397,-134.988 11.8361,-122.79 5.02153,-108 -1.67384,-93.4682 -1.67384,-86.5318 5.02153,-72 10.7824,-59.4964 21.1093,-48.846 31.7034,-40.4445"/>
<polygon fill="grey" stroke="grey" stroke-width="2" points="33.8285,-43.2261 39.7857,-34.4647 29.665,-37.5988 33.8285,-43.2261"/>
</g>
<!-- 4 -->
<g id="node5" class="node"><title>4</title>
<path fill="none" stroke="#56a9d8" stroke-width="2" d="M108.022,-108C108.022,-108 26.0215,-108 26.0215,-108 20.0215,-108 14.0215,-102 14.0215,-96 14.0215,-96 14.0215,-84 14.0215,-84 14.0215,-78 20.0215,-72 26.0215,-72 26.0215,-72 108.022,-72 108.022,-72 114.022,-72 120.022,-78 120.022,-84 120.022,-84 120.022,-96 120.022,-96 120.022,-102 114.022,-108 108.022,-108"/>
<text text-anchor="middle" x="67.0215" y="-87.5" font-family="sans" font-size="10.00">new_model_to_input</text>
</g>
<!-- 1&#45;&gt;4 -->
<g id="edge6" class="edge"><title>1&#45;&gt;4</title>
<path fill="none" stroke="grey" stroke-width="2" d="M67.0215,-143.697C67.0215,-135.983 67.0215,-126.712 67.0215,-118.112"/>
<polygon fill="grey" stroke="grey" stroke-width="2" points="70.5216,-118.104 67.0215,-108.104 63.5216,-118.104 70.5216,-118.104"/>
</g>
<!-- 2 -->
<g id="node3" class="node"><title>2</title>
<path fill="none" stroke="#59d856" stroke-width="2" d="M143.022,-252C143.022,-252 73.0215,-252 73.0215,-252 67.0215,-252 61.0215,-246 61.0215,-240 61.0215,-240 61.0215,-228 61.0215,-228 61.0215,-222 67.0215,-216 73.0215,-216 73.0215,-216 143.022,-216 143.022,-216 149.022,-216 155.022,-222 155.022,-228 155.022,-228 155.022,-240 155.022,-240 155.022,-246 149.022,-252 143.022,-252"/>
<text text-anchor="middle" x="108.022" y="-231.5" font-family="sans" font-size="10.00">create_gaugemap</text>
</g>
<!-- 2&#45;&gt;1 -->
<g id="edge4" class="edge"><title>2&#45;&gt;1</title>
<path fill="none" stroke="grey" stroke-width="2" d="M97.8867,-215.697C93.1699,-207.644 87.4597,-197.894 82.2398,-188.982"/>
<polygon fill="grey" stroke="grey" stroke-width="2" points="85.114,-186.964 77.0398,-180.104 79.0738,-190.502 85.114,-186.964"/>
</g>
<!-- 3 -->
<g id="node4" class="node"><title>3</title>
<path fill="none" stroke="#afd856" stroke-width="2" d="M200.022,-108C200.022,-108 150.022,-108 150.022,-108 144.022,-108 138.022,-102 138.022,-96 138.022,-96 138.022,-84 138.022,-84 138.022,-78 144.022,-72 150.022,-72 150.022,-72 200.022,-72 200.022,-72 206.022,-72 212.022,-78 212.022,-84 212.022,-84 212.022,-96 212.022,-96 212.022,-102 206.022,-108 200.022,-108"/>
<text text-anchor="middle" x="175.022" y="-87.5" font-family="sans" font-size="10.00">create_graph</text>
</g>
<!-- 2&#45;&gt;3 -->
<g id="edge5" class="edge"><title>2&#45;&gt;3</title>
<path fill="none" stroke="grey" stroke-width="2" d="M116.103,-215.871C127.673,-191.35 149.056,-146.032 162.632,-117.259"/>
<polygon fill="grey" stroke="grey" stroke-width="2" points="165.809,-118.727 166.911,-108.189 159.479,-115.74 165.809,-118.727"/>
</g>
<!-- 3&#45;&gt;0 -->
<g id="edge1" class="edge"><title>3&#45;&gt;0</title>
<path fill="none" stroke="grey" stroke-width="2" d="M148.602,-71.8761C134.612,-62.8083 117.245,-51.5523 102.136,-41.7592"/>
<polygon fill="grey" stroke="grey" stroke-width="2" points="103.838,-38.6917 93.5429,-36.1898 100.031,-44.5658 103.838,-38.6917"/>
</g>
<!-- 4&#45;&gt;0 -->
<g id="edge2" class="edge"><title>4&#45;&gt;0</title>
<path fill="none" stroke="grey" stroke-width="2" d="M67.0215,-71.6966C67.0215,-63.9827 67.0215,-54.7125 67.0215,-46.1124"/>
<polygon fill="grey" stroke="grey" stroke-width="2" points="70.5216,-46.1043 67.0215,-36.1043 63.5216,-46.1044 70.5216,-46.1043"/>
</g>
</g>
</svg>
