<?xml version="1.0" encoding="UTF-8" standalone="no"?>
<!DOCTYPE svg PUBLIC "-//W3C//DTD SVG 1.1//EN"
 "http://www.w3.org/Graphics/SVG/1.1/DTD/svg11.dtd">
<!-- Generated by graphviz version 2.38.0 (20140413.2041)
 -->
<!-- Title: snakemake_dag Pages: 1 -->
<svg width="136pt" height="764pt"
 viewBox="0.00 0.00 135.50 764.00" xmlns="http://www.w3.org/2000/svg" xmlns:xlink="http://www.w3.org/1999/xlink">
<g id="graph0" class="graph" transform="scale(1 1) rotate(0) translate(4 760)">
<title>snakemake_dag</title>
<polygon fill="white" stroke="none" points="-4,4 -4,-760 131.5,-760 131.5,4 -4,4"/>
<!-- 0 -->
<g id="node1" class="node"><title>0</title>
<path fill="none" stroke="#d8ac56" stroke-width="2" d="M63.5,-36C63.5,-36 33.5,-36 33.5,-36 27.5,-36 21.5,-30 21.5,-24 21.5,-24 21.5,-12 21.5,-12 21.5,-6 27.5,-0 33.5,-0 33.5,-0 63.5,-0 63.5,-0 69.5,-0 75.5,-6 75.5,-12 75.5,-12 75.5,-24 75.5,-24 75.5,-30 69.5,-36 63.5,-36"/>
<text text-anchor="middle" x="48.5" y="-15.5" font-family="sans" font-size="10.00">all</text>
</g>
<!-- 1 -->
<g id="node2" class="node"><title>1</title>
<path fill="none" stroke="#afd856" stroke-width="2" d="M63.5,-108C63.5,-108 33.5,-108 33.5,-108 27.5,-108 21.5,-102 21.5,-96 21.5,-96 21.5,-84 21.5,-84 21.5,-78 27.5,-72 33.5,-72 33.5,-72 63.5,-72 63.5,-72 69.5,-72 75.5,-78 75.5,-84 75.5,-84 75.5,-96 75.5,-96 75.5,-102 69.5,-108 63.5,-108"/>
<text text-anchor="middle" x="48.5" y="-87.5" font-family="sans" font-size="10.00">visualize</text>
</g>
<!-- 1&#45;&gt;0 -->
<g id="edge1" class="edge"><title>1&#45;&gt;0</title>
<path fill="none" stroke="grey" stroke-width="2" d="M48.5,-71.6966C48.5,-63.9827 48.5,-54.7125 48.5,-46.1124"/>
<polygon fill="grey" stroke="grey" stroke-width="2" points="52.0001,-46.1043 48.5,-36.1043 45.0001,-46.1044 52.0001,-46.1043"/>
</g>
<!-- 2 -->
<g id="node3" class="node"><title>2</title>
<path fill="none" stroke="#5682d8" stroke-width="2" d="M115.5,-180C115.5,-180 53.5,-180 53.5,-180 47.5,-180 41.5,-174 41.5,-168 41.5,-168 41.5,-156 41.5,-156 41.5,-150 47.5,-144 53.5,-144 53.5,-144 115.5,-144 115.5,-144 121.5,-144 127.5,-150 127.5,-156 127.5,-156 127.5,-168 127.5,-168 127.5,-174 121.5,-180 115.5,-180"/>
<text text-anchor="middle" x="84.5" y="-159.5" font-family="sans" font-size="10.00">run_final_model</text>
</g>
<!-- 2&#45;&gt;1 -->
<g id="edge3" class="edge"><title>2&#45;&gt;1</title>
<path fill="none" stroke="grey" stroke-width="2" d="M75.6011,-143.697C71.5032,-135.728 66.5512,-126.1 62.0073,-117.264"/>
<polygon fill="grey" stroke="grey" stroke-width="2" points="64.9826,-115.396 57.2965,-108.104 58.7575,-118.598 64.9826,-115.396"/>
</g>
<!-- 3 -->
<g id="node4" class="node"><title>3</title>
<path fill="none" stroke="#d88556" stroke-width="2" d="M80.5,-252C80.5,-252 16.5,-252 16.5,-252 10.5,-252 4.5,-246 4.5,-240 4.5,-240 4.5,-228 4.5,-228 4.5,-222 10.5,-216 16.5,-216 16.5,-216 80.5,-216 80.5,-216 86.5,-216 92.5,-222 92.5,-228 92.5,-228 92.5,-240 92.5,-240 92.5,-246 86.5,-252 80.5,-252"/>
<text text-anchor="middle" x="48.5" y="-231.5" font-family="sans" font-size="10.00">prep_final_stage</text>
</g>
<!-- 3&#45;&gt;1 -->
<g id="edge2" class="edge"><title>3&#45;&gt;1</title>
<path fill="none" stroke="grey" stroke-width="2" d="M41.8478,-215.628C38.2971,-205.421 34.2971,-192.171 32.5,-180 30.1629,-164.172 30.1629,-159.828 32.5,-144 33.7776,-135.347 36.1686,-126.149 38.7201,-117.887"/>
<polygon fill="grey" stroke="grey" stroke-width="2" points="42.0499,-118.965 41.8478,-108.372 35.3999,-116.779 42.0499,-118.965"/>
</g>
<!-- 3&#45;&gt;2 -->
<g id="edge4" class="edge"><title>3&#45;&gt;2</title>
<path fill="none" stroke="grey" stroke-width="2" d="M57.3989,-215.697C61.4968,-207.728 66.4488,-198.1 70.9927,-189.264"/>
<polygon fill="grey" stroke="grey" stroke-width="2" points="74.2425,-190.598 75.7035,-180.104 68.0174,-187.396 74.2425,-190.598"/>
</g>
<!-- 4 -->
<g id="node5" class="node"><title>4</title>
<path fill="none" stroke="#80d856" stroke-width="2" d="M101,-324C101,-324 58,-324 58,-324 52,-324 46,-318 46,-312 46,-312 46,-300 46,-300 46,-294 52,-288 58,-288 58,-288 101,-288 101,-288 107,-288 113,-294 113,-300 113,-300 113,-312 113,-312 113,-318 107,-324 101,-324"/>
<text text-anchor="middle" x="79.5" y="-303.5" font-family="sans" font-size="10.00">set_params</text>
</g>
<!-- 4&#45;&gt;3 -->
<g id="edge6" class="edge"><title>4&#45;&gt;3</title>
<path fill="none" stroke="grey" stroke-width="2" d="M71.8371,-287.697C68.3083,-279.728 64.0441,-270.1 60.1313,-261.264"/>
<polygon fill="grey" stroke="grey" stroke-width="2" points="63.3243,-259.831 56.0748,-252.104 56.9239,-262.665 63.3243,-259.831"/>
</g>
<!-- 5 -->
<g id="node6" class="node"><title>5</title>
<path fill="none" stroke="#d6d856" stroke-width="2" d="M63.5,-396C63.5,-396 33.5,-396 33.5,-396 27.5,-396 21.5,-390 21.5,-384 21.5,-384 21.5,-372 21.5,-372 21.5,-366 27.5,-360 33.5,-360 33.5,-360 63.5,-360 63.5,-360 69.5,-360 75.5,-366 75.5,-372 75.5,-372 75.5,-384 75.5,-384 75.5,-390 69.5,-396 63.5,-396"/>
<text text-anchor="middle" x="48.5" y="-375.5" font-family="sans" font-size="10.00">evaluate</text>
</g>
<!-- 5&#45;&gt;3 -->
<g id="edge5" class="edge"><title>5&#45;&gt;3</title>
<path fill="none" stroke="grey" stroke-width="2" d="M43.6309,-359.979C40.9358,-349.665 37.8626,-336.189 36.5,-324 34.7224,-308.099 34.7224,-303.901 36.5,-288 37.4581,-279.43 39.2618,-270.223 41.1852,-261.926"/>
<polygon fill="grey" stroke="grey" stroke-width="2" points="44.6318,-262.568 43.6309,-252.021 37.8358,-260.89 44.6318,-262.568"/>
</g>
<!-- 5&#45;&gt;4 -->
<g id="edge7" class="edge"><title>5&#45;&gt;4</title>
<path fill="none" stroke="grey" stroke-width="2" d="M56.1629,-359.697C59.6917,-351.728 63.9559,-342.1 67.8687,-333.264"/>
<polygon fill="grey" stroke="grey" stroke-width="2" points="71.0761,-334.665 71.9252,-324.104 64.6757,-331.831 71.0761,-334.665"/>
</g>
<!-- 6 -->
<g id="node7" class="node"><title>6</title>
<path fill="none" stroke="#56d882" stroke-width="2" d="M63.5,-468C63.5,-468 33.5,-468 33.5,-468 27.5,-468 21.5,-462 21.5,-456 21.5,-456 21.5,-444 21.5,-444 21.5,-438 27.5,-432 33.5,-432 33.5,-432 63.5,-432 63.5,-432 69.5,-432 75.5,-438 75.5,-444 75.5,-444 75.5,-456 75.5,-456 75.5,-462 69.5,-468 63.5,-468"/>
<text text-anchor="middle" x="48.5" y="-447.5" font-family="sans" font-size="10.00">wflow</text>
</g>
<!-- 6&#45;&gt;5 -->
<g id="edge8" class="edge"><title>6&#45;&gt;5</title>
<path fill="none" stroke="grey" stroke-width="2" d="M48.5,-431.697C48.5,-423.983 48.5,-414.712 48.5,-406.112"/>
<polygon fill="grey" stroke="grey" stroke-width="2" points="52.0001,-406.104 48.5,-396.104 45.0001,-406.104 52.0001,-406.104"/>
</g>
<!-- 7 -->
<g id="node8" class="node"><title>7</title>
<path fill="none" stroke="#59d856" stroke-width="2" d="M63.5,-612C63.5,-612 33.5,-612 33.5,-612 27.5,-612 21.5,-606 21.5,-600 21.5,-600 21.5,-588 21.5,-588 21.5,-582 27.5,-576 33.5,-576 33.5,-576 63.5,-576 63.5,-576 69.5,-576 75.5,-582 75.5,-588 75.5,-588 75.5,-600 75.5,-600 75.5,-606 69.5,-612 63.5,-612"/>
<text text-anchor="middle" x="48.5" y="-591.5" font-family="sans" font-size="10.00">config</text>
</g>
<!-- 7&#45;&gt;6 -->
<g id="edge9" class="edge"><title>7&#45;&gt;6</title>
<path fill="none" stroke="grey" stroke-width="2" d="M42.262,-575.593C38.9326,-565.374 35.1826,-552.124 33.5,-540 31.3005,-524.152 31.3005,-519.848 33.5,-504 34.6831,-495.475 36.8883,-486.394 39.2507,-478.201"/>
<polygon fill="grey" stroke="grey" stroke-width="2" points="42.6684,-478.994 42.262,-468.407 35.9776,-476.937 42.6684,-478.994"/>
</g>
<!-- 10 -->
<g id="node11" class="node"><title>10</title>
<path fill="none" stroke="#56d8a9" stroke-width="2" d="M112,-540C112,-540 55,-540 55,-540 49,-540 43,-534 43,-528 43,-528 43,-516 43,-516 43,-510 49,-504 55,-504 55,-504 112,-504 112,-504 118,-504 124,-510 124,-516 124,-516 124,-528 124,-528 124,-534 118,-540 112,-540"/>
<text text-anchor="middle" x="83.5" y="-519.5" font-family="sans" font-size="10.00">create_params</text>
</g>
<!-- 7&#45;&gt;10 -->
<g id="edge13" class="edge"><title>7&#45;&gt;10</title>
<path fill="none" stroke="grey" stroke-width="2" d="M57.1517,-575.697C61.1358,-567.728 65.9502,-558.1 70.3679,-549.264"/>
<polygon fill="grey" stroke="grey" stroke-width="2" points="73.6061,-550.614 74.9478,-540.104 67.3451,-547.483 73.6061,-550.614"/>
</g>
<!-- 8 -->
<g id="node9" class="node"><title>8</title>
<path fill="none" stroke="#d85656" stroke-width="2" d="M85,-684C85,-684 12,-684 12,-684 6,-684 0,-678 0,-672 0,-672 0,-660 0,-660 0,-654 6,-648 12,-648 12,-648 85,-648 85,-648 91,-648 97,-654 97,-660 97,-660 97,-672 97,-672 97,-678 91,-684 85,-684"/>
<text text-anchor="middle" x="48.5" y="-663.5" font-family="sans" font-size="10.00">run_initial_instates</text>
</g>
<!-- 8&#45;&gt;7 -->
<g id="edge11" class="edge"><title>8&#45;&gt;7</title>
<path fill="none" stroke="grey" stroke-width="2" d="M48.5,-647.697C48.5,-639.983 48.5,-630.712 48.5,-622.112"/>
<polygon fill="grey" stroke="grey" stroke-width="2" points="52.0001,-622.104 48.5,-612.104 45.0001,-622.104 52.0001,-622.104"/>
</g>
<!-- 9 -->
<g id="node10" class="node"><title>9</title>
<path fill="none" stroke="#56d8d8" stroke-width="2" d="M75,-756C75,-756 22,-756 22,-756 16,-756 10,-750 10,-744 10,-744 10,-732 10,-732 10,-726 16,-720 22,-720 22,-720 75,-720 75,-720 81,-720 87,-726 87,-732 87,-732 87,-744 87,-744 87,-750 81,-756 75,-756"/>
<text text-anchor="middle" x="48.5" y="-735.5" font-family="sans" font-size="10.00">initial_instates</text>
</g>
<!-- 9&#45;&gt;8 -->
<g id="edge12" class="edge"><title>9&#45;&gt;8</title>
<path fill="none" stroke="grey" stroke-width="2" d="M48.5,-719.697C48.5,-711.983 48.5,-702.712 48.5,-694.112"/>
<polygon fill="grey" stroke="grey" stroke-width="2" points="52.0001,-694.104 48.5,-684.104 45.0001,-694.104 52.0001,-694.104"/>
</g>
<!-- 10&#45;&gt;6 -->
<g id="edge10" class="edge"><title>10&#45;&gt;6</title>
<path fill="none" stroke="grey" stroke-width="2" d="M74.8483,-503.697C70.8642,-495.728 66.0498,-486.1 61.6321,-477.264"/>
<polygon fill="grey" stroke="grey" stroke-width="2" points="64.6549,-475.483 57.0522,-468.104 58.3939,-478.614 64.6549,-475.483"/>
</g>
</g>
</svg>
