<?xml version="1.0" encoding="UTF-8" standalone="no"?>
<!DOCTYPE svg PUBLIC "-//W3C//DTD SVG 1.1//EN"
 "http://www.w3.org/Graphics/SVG/1.1/DTD/svg11.dtd">
<!-- Generated by graphviz version 2.38.0 (20140413.2041)
 -->
<!-- Title: snakemake_dag Pages: 1 -->
<svg width="806pt" height="3788pt"
 viewBox="0.00 0.00 806.00 3788.00" xmlns="http://www.w3.org/2000/svg" xmlns:xlink="http://www.w3.org/1999/xlink">
<g id="graph0" class="graph" transform="scale(1 1) rotate(0) translate(4 3784)">
<title>snakemake_dag</title>
<polygon fill="white" stroke="none" points="-4,4 -4,-3784 802,-3784 802,4 -4,4"/>
<!-- 0 -->
<g id="node1" class="node"><title>0</title>
<path fill="none" stroke="#d8cb56" stroke-width="2" d="M262,-36C262,-36 232,-36 232,-36 226,-36 220,-30 220,-24 220,-24 220,-12 220,-12 220,-6 226,-0 232,-0 232,-0 262,-0 262,-0 268,-0 274,-6 274,-12 274,-12 274,-24 274,-24 274,-30 268,-36 262,-36"/>
<text text-anchor="middle" x="247" y="-15.5" font-family="sans" font-size="10.00">all</text>
</g>
<!-- 1 -->
<g id="node2" class="node"><title>1</title>
<path fill="none" stroke="#ced856" stroke-width="2" d="M419,-108C419,-108 389,-108 389,-108 383,-108 377,-102 377,-96 377,-96 377,-84 377,-84 377,-78 383,-72 389,-72 389,-72 419,-72 419,-72 425,-72 431,-78 431,-84 431,-84 431,-96 431,-96 431,-102 425,-108 419,-108"/>
<text text-anchor="middle" x="404" y="-87.5" font-family="sans" font-size="10.00">visualize</text>
</g>
<!-- 1&#45;&gt;0 -->
<g id="edge4" class="edge"><title>1&#45;&gt;0</title>
<path fill="none" stroke="grey" stroke-width="2" d="M376.653,-76.8069C350.763,-65.2638 311.725,-47.8584 283.251,-35.1629"/>
<polygon fill="grey" stroke="grey" stroke-width="2" points="284.593,-31.9289 274.034,-31.0533 281.742,-38.3222 284.593,-31.9289"/>
</g>
<!-- 2 -->
<g id="node3" class="node"><title>2</title>
<path fill="none" stroke="#9fd856" stroke-width="2" d="M506,-180C506,-180 444,-180 444,-180 438,-180 432,-174 432,-168 432,-168 432,-156 432,-156 432,-150 438,-144 444,-144 444,-144 506,-144 506,-144 512,-144 518,-150 518,-156 518,-156 518,-168 518,-168 518,-174 512,-180 506,-180"/>
<text text-anchor="middle" x="475" y="-159.5" font-family="sans" font-size="10.00">run_final_model</text>
</g>
<!-- 2&#45;&gt;1 -->
<g id="edge16" class="edge"><title>2&#45;&gt;1</title>
<path fill="none" stroke="grey" stroke-width="2" d="M457.449,-143.697C448.766,-135.135 438.137,-124.656 428.652,-115.304"/>
<polygon fill="grey" stroke="grey" stroke-width="2" points="430.927,-112.633 421.349,-108.104 426.012,-117.617 430.927,-112.633"/>
</g>
<!-- 3 -->
<g id="node4" class="node"><title>3</title>
<path fill="none" stroke="#59d856" stroke-width="2" d="M507,-252C507,-252 443,-252 443,-252 437,-252 431,-246 431,-240 431,-240 431,-228 431,-228 431,-222 437,-216 443,-216 443,-216 507,-216 507,-216 513,-216 519,-222 519,-228 519,-228 519,-240 519,-240 519,-246 513,-252 507,-252"/>
<text text-anchor="middle" x="475" y="-231.5" font-family="sans" font-size="10.00">prep_final_stage</text>
</g>
<!-- 3&#45;&gt;1 -->
<g id="edge15" class="edge"><title>3&#45;&gt;1</title>
<path fill="none" stroke="grey" stroke-width="2" d="M453.029,-215.791C442.404,-206.331 430.383,-193.739 423,-180 412.684,-160.804 407.969,-136.457 405.814,-118.082"/>
<polygon fill="grey" stroke="grey" stroke-width="2" points="409.288,-117.643 404.818,-108.038 402.322,-118.334 409.288,-117.643"/>
</g>
<!-- 3&#45;&gt;2 -->
<g id="edge17" class="edge"><title>3&#45;&gt;2</title>
<path fill="none" stroke="grey" stroke-width="2" d="M475,-215.697C475,-207.983 475,-198.712 475,-190.112"/>
<polygon fill="grey" stroke="grey" stroke-width="2" points="478.5,-190.104 475,-180.104 471.5,-190.104 478.5,-190.104"/>
</g>
<!-- 4 -->
<g id="node5" class="node"><title>4</title>
<path fill="none" stroke="#56b1d8" stroke-width="2" d="M373,-324C373,-324 315,-324 315,-324 309,-324 303,-318 303,-312 303,-312 303,-300 303,-300 303,-294 309,-288 315,-288 315,-288 373,-288 373,-288 379,-288 385,-294 385,-300 385,-300 385,-312 385,-312 385,-318 379,-324 373,-324"/>
<text text-anchor="middle" x="344" y="-303.5" font-family="sans" font-size="10.00">set_params_L5</text>
</g>
<!-- 4&#45;&gt;0 -->
<g id="edge6" class="edge"><title>4&#45;&gt;0</title>
<path fill="none" stroke="grey" stroke-width="2" d="M338.223,-287.966C321.986,-240.093 275.849,-104.06 256.125,-45.9036"/>
<polygon fill="grey" stroke="grey" stroke-width="2" points="259.396,-44.6524 252.87,-36.3065 252.767,-46.9008 259.396,-44.6524"/>
</g>
<!-- 4&#45;&gt;3 -->
<g id="edge19" class="edge"><title>4&#45;&gt;3</title>
<path fill="none" stroke="grey" stroke-width="2" d="M376.046,-287.876C393.492,-278.554 415.265,-266.919 433.943,-256.939"/>
<polygon fill="grey" stroke="grey" stroke-width="2" points="435.66,-259.99 442.831,-252.19 432.361,-253.816 435.66,-259.99"/>
</g>
<!-- 5 -->
<g id="node6" class="node"><title>5</title>
<path fill="none" stroke="#56d882" stroke-width="2" d="M366,-396C366,-396 322,-396 322,-396 316,-396 310,-390 310,-384 310,-384 310,-372 310,-372 310,-366 316,-360 322,-360 322,-360 366,-360 366,-360 372,-360 378,-366 378,-372 378,-372 378,-384 378,-384 378,-390 372,-396 366,-396"/>
<text text-anchor="middle" x="344" y="-375.5" font-family="sans" font-size="10.00">evaluate_L5</text>
</g>
<!-- 5&#45;&gt;3 -->
<g id="edge20" class="edge"><title>5&#45;&gt;3</title>
<path fill="none" stroke="grey" stroke-width="2" d="M360.291,-359.887C370.104,-349.541 382.823,-336.062 394,-324 413.949,-302.471 436.396,-277.769 452.592,-259.86"/>
<polygon fill="grey" stroke="grey" stroke-width="2" points="455.455,-261.911 459.562,-252.145 450.261,-257.219 455.455,-261.911"/>
</g>
<!-- 5&#45;&gt;4 -->
<g id="edge25" class="edge"><title>5&#45;&gt;4</title>
<path fill="none" stroke="grey" stroke-width="2" d="M344,-359.697C344,-351.983 344,-342.712 344,-334.112"/>
<polygon fill="grey" stroke="grey" stroke-width="2" points="347.5,-334.104 344,-324.104 340.5,-334.104 347.5,-334.104"/>
</g>
<!-- 6 -->
<g id="node7" class="node"><title>6</title>
<path fill="none" stroke="#d89556" stroke-width="2" d="M359.5,-468C359.5,-468 326.5,-468 326.5,-468 320.5,-468 314.5,-462 314.5,-456 314.5,-456 314.5,-444 314.5,-444 314.5,-438 320.5,-432 326.5,-432 326.5,-432 359.5,-432 359.5,-432 365.5,-432 371.5,-438 371.5,-444 371.5,-444 371.5,-456 371.5,-456 371.5,-462 365.5,-468 359.5,-468"/>
<text text-anchor="middle" x="343" y="-447.5" font-family="sans" font-size="10.00">wflow_L5</text>
</g>
<!-- 6&#45;&gt;5 -->
<g id="edge26" class="edge"><title>6&#45;&gt;5</title>
<path fill="none" stroke="grey" stroke-width="2" d="M343.247,-431.697C343.357,-423.983 343.49,-414.712 343.613,-406.112"/>
<polygon fill="grey" stroke="grey" stroke-width="2" points="347.112,-406.153 343.756,-396.104 340.113,-406.053 347.112,-406.153"/>
</g>
<!-- 7 -->
<g id="node8" class="node"><title>7</title>
<path fill="none" stroke="#d85e56" stroke-width="2" d="M294,-684C294,-684 238,-684 238,-684 232,-684 226,-678 226,-672 226,-672 226,-660 226,-660 226,-654 232,-648 238,-648 238,-648 294,-648 294,-648 300,-648 306,-654 306,-660 306,-660 306,-672 306,-672 306,-678 300,-684 294,-684"/>
<text text-anchor="middle" x="266" y="-663.5" font-family="sans" font-size="10.00">run_instate_L5</text>
</g>
<!-- 7&#45;&gt;0 -->
<g id="edge2" class="edge"><title>7&#45;&gt;0</title>
<path fill="none" stroke="grey" stroke-width="2" d="M258.31,-647.907C247.206,-621.623 228,-569.447 228,-523 228,-523 228,-523 228,-161 228,-120.86 235.551,-74.897 241.132,-46.4045"/>
<polygon fill="grey" stroke="grey" stroke-width="2" points="244.606,-46.8834 243.155,-36.3884 237.745,-45.4976 244.606,-46.8834"/>
</g>
<!-- 7&#45;&gt;6 -->
<g id="edge27" class="edge"><title>7&#45;&gt;6</title>
<path fill="none" stroke="grey" stroke-width="2" d="M264.271,-647.902C261.949,-617.22 260.594,-551.582 285,-504 290.739,-492.811 299.866,-482.808 309.197,-474.587"/>
<polygon fill="grey" stroke="grey" stroke-width="2" points="311.543,-477.188 317.012,-468.114 307.078,-471.797 311.543,-477.188"/>
</g>
<!-- 51 -->
<g id="node52" class="node"><title>51</title>
<path fill="none" stroke="#56d8a9" stroke-width="2" d="M358.5,-612C358.5,-612 325.5,-612 325.5,-612 319.5,-612 313.5,-606 313.5,-600 313.5,-600 313.5,-588 313.5,-588 313.5,-582 319.5,-576 325.5,-576 325.5,-576 358.5,-576 358.5,-576 364.5,-576 370.5,-582 370.5,-588 370.5,-588 370.5,-600 370.5,-600 370.5,-606 364.5,-612 358.5,-612"/>
<text text-anchor="middle" x="342" y="-591.5" font-family="sans" font-size="10.00">config_L5</text>
</g>
<!-- 7&#45;&gt;51 -->
<g id="edge89" class="edge"><title>7&#45;&gt;51</title>
<path fill="none" stroke="grey" stroke-width="2" d="M284.787,-647.697C294.174,-639.05 305.684,-628.449 315.913,-619.027"/>
<polygon fill="grey" stroke="grey" stroke-width="2" points="318.445,-621.454 323.43,-612.104 313.703,-616.305 318.445,-621.454"/>
</g>
<!-- 8 -->
<g id="node9" class="node"><title>8</title>
<path fill="none" stroke="#d88556" stroke-width="2" d="M391,-756C391,-756 287,-756 287,-756 281,-756 275,-750 275,-744 275,-744 275,-732 275,-732 275,-726 281,-720 287,-720 287,-720 391,-720 391,-720 397,-720 403,-726 403,-732 403,-732 403,-744 403,-744 403,-750 397,-756 391,-756"/>
<text text-anchor="middle" x="339" y="-735.5" font-family="sans" font-size="10.00">ST_instate_staticmaps_L5</text>
</g>
<!-- 8&#45;&gt;7 -->
<g id="edge30" class="edge"><title>8&#45;&gt;7</title>
<path fill="none" stroke="grey" stroke-width="2" d="M320.955,-719.697C311.938,-711.05 300.882,-700.449 291.057,-691.027"/>
<polygon fill="grey" stroke="grey" stroke-width="2" points="293.478,-688.499 283.837,-684.104 288.633,-693.552 293.478,-688.499"/>
</g>
<!-- 9 -->
<g id="node10" class="node"><title>9</title>
<path fill="none" stroke="#56d89a" stroke-width="2" d="M322,-828C322,-828 230,-828 230,-828 224,-828 218,-822 218,-816 218,-816 218,-804 218,-804 218,-798 224,-792 230,-792 230,-792 322,-792 322,-792 328,-792 334,-798 334,-804 334,-804 334,-816 334,-816 334,-822 328,-828 322,-828"/>
<text text-anchor="middle" x="276" y="-807.5" font-family="sans" font-size="10.00">initial_instate_tomls_L5</text>
</g>
<!-- 9&#45;&gt;7 -->
<g id="edge31" class="edge"><title>9&#45;&gt;7</title>
<path fill="none" stroke="grey" stroke-width="2" d="M271.941,-791.929C269.694,-781.598 267.133,-768.12 266,-756 264.07,-735.361 264.163,-711.912 264.688,-694.266"/>
<polygon fill="grey" stroke="grey" stroke-width="2" points="268.192,-694.226 265.057,-684.106 261.197,-693.972 268.192,-694.226"/>
</g>
<!-- 9&#45;&gt;8 -->
<g id="edge32" class="edge"><title>9&#45;&gt;8</title>
<path fill="none" stroke="grey" stroke-width="2" d="M291.573,-791.697C299.202,-783.22 308.523,-772.864 316.876,-763.583"/>
<polygon fill="grey" stroke="grey" stroke-width="2" points="319.518,-765.879 323.606,-756.104 314.315,-761.196 319.518,-765.879"/>
</g>
<!-- 10 -->
<g id="node11" class="node"><title>10</title>
<path fill="none" stroke="#80d856" stroke-width="2" d="M303,-900C303,-900 245,-900 245,-900 239,-900 233,-894 233,-888 233,-888 233,-876 233,-876 233,-870 239,-864 245,-864 245,-864 303,-864 303,-864 309,-864 315,-870 315,-876 315,-876 315,-888 315,-888 315,-894 309,-900 303,-900"/>
<text text-anchor="middle" x="274" y="-879.5" font-family="sans" font-size="10.00">set_params_L4</text>
</g>
<!-- 10&#45;&gt;0 -->
<g id="edge14" class="edge"><title>10&#45;&gt;0</title>
<path fill="none" stroke="grey" stroke-width="2" d="M245.178,-863.949C232.224,-854.856 217.883,-842.537 209,-828 187.909,-793.487 190,-779.447 190,-739 190,-739 190,-739 190,-161 190,-117.801 213,-72.1859 229.78,-44.6553"/>
<polygon fill="grey" stroke="grey" stroke-width="2" points="232.835,-46.3716 235.19,-36.0417 226.907,-42.6485 232.835,-46.3716"/>
</g>
<!-- 10&#45;&gt;9 -->
<g id="edge33" class="edge"><title>10&#45;&gt;9</title>
<path fill="none" stroke="grey" stroke-width="2" d="M274.494,-863.697C274.715,-855.983 274.98,-846.712 275.225,-838.112"/>
<polygon fill="grey" stroke="grey" stroke-width="2" points="278.724,-838.2 275.511,-828.104 271.727,-838 278.724,-838.2"/>
</g>
<!-- 11 -->
<g id="node12" class="node"><title>11</title>
<path fill="none" stroke="#567bd8" stroke-width="2" d="M296,-972C296,-972 252,-972 252,-972 246,-972 240,-966 240,-960 240,-960 240,-948 240,-948 240,-942 246,-936 252,-936 252,-936 296,-936 296,-936 302,-936 308,-942 308,-948 308,-948 308,-960 308,-960 308,-966 302,-972 296,-972"/>
<text text-anchor="middle" x="274" y="-951.5" font-family="sans" font-size="10.00">evaluate_L4</text>
</g>
<!-- 11&#45;&gt;3 -->
<g id="edge22" class="edge"><title>11&#45;&gt;3</title>
<path fill="none" stroke="grey" stroke-width="2" d="M308.233,-943.4C360.954,-926.283 456,-885.142 456,-811 456,-811 456,-811 456,-377 456,-336.86 463.551,-290.897 469.132,-262.405"/>
<polygon fill="grey" stroke="grey" stroke-width="2" points="472.606,-262.883 471.155,-252.388 465.745,-261.498 472.606,-262.883"/>
</g>
<!-- 11&#45;&gt;10 -->
<g id="edge34" class="edge"><title>11&#45;&gt;10</title>
<path fill="none" stroke="grey" stroke-width="2" d="M274,-935.697C274,-927.983 274,-918.712 274,-910.112"/>
<polygon fill="grey" stroke="grey" stroke-width="2" points="277.5,-910.104 274,-900.104 270.5,-910.104 277.5,-910.104"/>
</g>
<!-- 12 -->
<g id="node13" class="node"><title>12</title>
<path fill="none" stroke="#56d863" stroke-width="2" d="M287.5,-1044C287.5,-1044 254.5,-1044 254.5,-1044 248.5,-1044 242.5,-1038 242.5,-1032 242.5,-1032 242.5,-1020 242.5,-1020 242.5,-1014 248.5,-1008 254.5,-1008 254.5,-1008 287.5,-1008 287.5,-1008 293.5,-1008 299.5,-1014 299.5,-1020 299.5,-1020 299.5,-1032 299.5,-1032 299.5,-1038 293.5,-1044 287.5,-1044"/>
<text text-anchor="middle" x="271" y="-1023.5" font-family="sans" font-size="10.00">wflow_L4</text>
</g>
<!-- 12&#45;&gt;11 -->
<g id="edge35" class="edge"><title>12&#45;&gt;11</title>
<path fill="none" stroke="grey" stroke-width="2" d="M271.742,-1007.7C272.072,-999.983 272.469,-990.712 272.838,-982.112"/>
<polygon fill="grey" stroke="grey" stroke-width="2" points="276.335,-982.245 273.267,-972.104 269.342,-981.945 276.335,-982.245"/>
</g>
<!-- 13 -->
<g id="node14" class="node"><title>13</title>
<path fill="none" stroke="#56a2d8" stroke-width="2" d="M253,-1260C253,-1260 197,-1260 197,-1260 191,-1260 185,-1254 185,-1248 185,-1248 185,-1236 185,-1236 185,-1230 191,-1224 197,-1224 197,-1224 253,-1224 253,-1224 259,-1224 265,-1230 265,-1236 265,-1236 265,-1248 265,-1248 265,-1254 259,-1260 253,-1260"/>
<text text-anchor="middle" x="225" y="-1239.5" font-family="sans" font-size="10.00">run_instate_L4</text>
</g>
<!-- 13&#45;&gt;0 -->
<g id="edge7" class="edge"><title>13&#45;&gt;0</title>
<path fill="none" stroke="grey" stroke-width="2" d="M209.16,-1223.65C187.69,-1198.27 152,-1148.62 152,-1099 152,-1099 152,-1099 152,-161 152,-113.012 189.944,-68.9633 217.871,-43.0419"/>
<polygon fill="grey" stroke="grey" stroke-width="2" points="220.354,-45.516 225.443,-36.2232 215.67,-40.3144 220.354,-45.516"/>
</g>
<!-- 13&#45;&gt;12 -->
<g id="edge38" class="edge"><title>13&#45;&gt;12</title>
<path fill="none" stroke="grey" stroke-width="2" d="M228.63,-1223.94C232.445,-1206.02 238.626,-1177.02 244,-1152 251.219,-1118.38 259.586,-1079.69 265.069,-1054.37"/>
<polygon fill="grey" stroke="grey" stroke-width="2" points="268.534,-1054.9 267.23,-1044.39 261.693,-1053.42 268.534,-1054.9"/>
</g>
<!-- 49 -->
<g id="node50" class="node"><title>49</title>
<path fill="none" stroke="#56d85b" stroke-width="2" d="M298.5,-1188C298.5,-1188 265.5,-1188 265.5,-1188 259.5,-1188 253.5,-1182 253.5,-1176 253.5,-1176 253.5,-1164 253.5,-1164 253.5,-1158 259.5,-1152 265.5,-1152 265.5,-1152 298.5,-1152 298.5,-1152 304.5,-1152 310.5,-1158 310.5,-1164 310.5,-1164 310.5,-1176 310.5,-1176 310.5,-1182 304.5,-1188 298.5,-1188"/>
<text text-anchor="middle" x="282" y="-1167.5" font-family="sans" font-size="10.00">config_L4</text>
</g>
<!-- 13&#45;&gt;49 -->
<g id="edge87" class="edge"><title>13&#45;&gt;49</title>
<path fill="none" stroke="grey" stroke-width="2" d="M239.09,-1223.7C245.923,-1215.3 254.257,-1205.07 261.756,-1195.86"/>
<polygon fill="grey" stroke="grey" stroke-width="2" points="264.472,-1198.07 268.072,-1188.1 259.044,-1193.65 264.472,-1198.07"/>
</g>
<!-- 14 -->
<g id="node15" class="node"><title>14</title>
<path fill="none" stroke="#c6d856" stroke-width="2" d="M369,-1332C369,-1332 265,-1332 265,-1332 259,-1332 253,-1326 253,-1320 253,-1320 253,-1308 253,-1308 253,-1302 259,-1296 265,-1296 265,-1296 369,-1296 369,-1296 375,-1296 381,-1302 381,-1308 381,-1308 381,-1320 381,-1320 381,-1326 375,-1332 369,-1332"/>
<text text-anchor="middle" x="317" y="-1311.5" font-family="sans" font-size="10.00">ST_instate_staticmaps_L4</text>
</g>
<!-- 14&#45;&gt;13 -->
<g id="edge39" class="edge"><title>14&#45;&gt;13</title>
<path fill="none" stroke="grey" stroke-width="2" d="M294.258,-1295.7C282.56,-1286.8 268.139,-1275.82 255.49,-1266.2"/>
<polygon fill="grey" stroke="grey" stroke-width="2" points="257.558,-1263.37 247.48,-1260.1 253.319,-1268.94 257.558,-1263.37"/>
</g>
<!-- 15 -->
<g id="node16" class="node"><title>15</title>
<path fill="none" stroke="#bed856" stroke-width="2" d="M363,-1404C363,-1404 271,-1404 271,-1404 265,-1404 259,-1398 259,-1392 259,-1392 259,-1380 259,-1380 259,-1374 265,-1368 271,-1368 271,-1368 363,-1368 363,-1368 369,-1368 375,-1374 375,-1380 375,-1380 375,-1392 375,-1392 375,-1398 369,-1404 363,-1404"/>
<text text-anchor="middle" x="317" y="-1383.5" font-family="sans" font-size="10.00">initial_instate_tomls_L4</text>
</g>
<!-- 15&#45;&gt;13 -->
<g id="edge40" class="edge"><title>15&#45;&gt;13</title>
<path fill="none" stroke="grey" stroke-width="2" d="M283.52,-1367.99C269.274,-1359.12 253.733,-1346.97 244,-1332 232.048,-1313.62 227.471,-1289.02 225.785,-1270.34"/>
<polygon fill="grey" stroke="grey" stroke-width="2" points="229.26,-1269.85 225.092,-1260.11 222.276,-1270.33 229.26,-1269.85"/>
</g>
<!-- 15&#45;&gt;14 -->
<g id="edge41" class="edge"><title>15&#45;&gt;14</title>
<path fill="none" stroke="grey" stroke-width="2" d="M317,-1367.7C317,-1359.98 317,-1350.71 317,-1342.11"/>
<polygon fill="grey" stroke="grey" stroke-width="2" points="320.5,-1342.1 317,-1332.1 313.5,-1342.1 320.5,-1342.1"/>
</g>
<!-- 16 -->
<g id="node17" class="node"><title>16</title>
<path fill="none" stroke="#566bd8" stroke-width="2" d="M346,-1476C346,-1476 288,-1476 288,-1476 282,-1476 276,-1470 276,-1464 276,-1464 276,-1452 276,-1452 276,-1446 282,-1440 288,-1440 288,-1440 346,-1440 346,-1440 352,-1440 358,-1446 358,-1452 358,-1452 358,-1464 358,-1464 358,-1470 352,-1476 346,-1476"/>
<text text-anchor="middle" x="317" y="-1455.5" font-family="sans" font-size="10.00">set_params_L3</text>
</g>
<!-- 16&#45;&gt;0 -->
<g id="edge13" class="edge"><title>16&#45;&gt;0</title>
<path fill="none" stroke="grey" stroke-width="2" d="M275.92,-1447.89C216.603,-1432.03 114,-1393.28 114,-1315 114,-1315 114,-1315 114,-161 114,-104.244 171.298,-60.8175 210.678,-37.6739"/>
<polygon fill="grey" stroke="grey" stroke-width="2" points="212.805,-40.4906 219.765,-32.5024 209.342,-34.4069 212.805,-40.4906"/>
</g>
<!-- 16&#45;&gt;15 -->
<g id="edge42" class="edge"><title>16&#45;&gt;15</title>
<path fill="none" stroke="grey" stroke-width="2" d="M317,-1439.7C317,-1431.98 317,-1422.71 317,-1414.11"/>
<polygon fill="grey" stroke="grey" stroke-width="2" points="320.5,-1414.1 317,-1404.1 313.5,-1414.1 320.5,-1414.1"/>
</g>
<!-- 17 -->
<g id="node18" class="node"><title>17</title>
<path fill="none" stroke="#d8d356" stroke-width="2" d="M367,-1548C367,-1548 323,-1548 323,-1548 317,-1548 311,-1542 311,-1536 311,-1536 311,-1524 311,-1524 311,-1518 317,-1512 323,-1512 323,-1512 367,-1512 367,-1512 373,-1512 379,-1518 379,-1524 379,-1524 379,-1536 379,-1536 379,-1542 373,-1548 367,-1548"/>
<text text-anchor="middle" x="345" y="-1527.5" font-family="sans" font-size="10.00">evaluate_L3</text>
</g>
<!-- 17&#45;&gt;3 -->
<g id="edge18" class="edge"><title>17&#45;&gt;3</title>
<path fill="none" stroke="grey" stroke-width="2" d="M379.184,-1514.67C423.174,-1493.67 494,-1450.07 494,-1387 494,-1387 494,-1387 494,-377 494,-336.86 486.449,-290.897 480.868,-262.405"/>
<polygon fill="grey" stroke="grey" stroke-width="2" points="484.255,-261.498 478.845,-252.388 477.394,-262.883 484.255,-261.498"/>
</g>
<!-- 17&#45;&gt;16 -->
<g id="edge43" class="edge"><title>17&#45;&gt;16</title>
<path fill="none" stroke="grey" stroke-width="2" d="M338.079,-1511.7C334.925,-1503.81 331.122,-1494.3 327.619,-1485.55"/>
<polygon fill="grey" stroke="grey" stroke-width="2" points="330.805,-1484.09 323.842,-1476.1 324.306,-1486.69 330.805,-1484.09"/>
</g>
<!-- 18 -->
<g id="node19" class="node"><title>18</title>
<path fill="none" stroke="#d87556" stroke-width="2" d="M361.5,-1620C361.5,-1620 328.5,-1620 328.5,-1620 322.5,-1620 316.5,-1614 316.5,-1608 316.5,-1608 316.5,-1596 316.5,-1596 316.5,-1590 322.5,-1584 328.5,-1584 328.5,-1584 361.5,-1584 361.5,-1584 367.5,-1584 373.5,-1590 373.5,-1596 373.5,-1596 373.5,-1608 373.5,-1608 373.5,-1614 367.5,-1620 361.5,-1620"/>
<text text-anchor="middle" x="345" y="-1599.5" font-family="sans" font-size="10.00">wflow_L3</text>
</g>
<!-- 18&#45;&gt;17 -->
<g id="edge44" class="edge"><title>18&#45;&gt;17</title>
<path fill="none" stroke="grey" stroke-width="2" d="M345,-1583.7C345,-1575.98 345,-1566.71 345,-1558.11"/>
<polygon fill="grey" stroke="grey" stroke-width="2" points="348.5,-1558.1 345,-1548.1 341.5,-1558.1 348.5,-1558.1"/>
</g>
<!-- 19 -->
<g id="node20" class="node"><title>19</title>
<path fill="none" stroke="#569ad8" stroke-width="2" d="M368,-1836C368,-1836 312,-1836 312,-1836 306,-1836 300,-1830 300,-1824 300,-1824 300,-1812 300,-1812 300,-1806 306,-1800 312,-1800 312,-1800 368,-1800 368,-1800 374,-1800 380,-1806 380,-1812 380,-1812 380,-1824 380,-1824 380,-1830 374,-1836 368,-1836"/>
<text text-anchor="middle" x="340" y="-1815.5" font-family="sans" font-size="10.00">run_instate_L3</text>
</g>
<!-- 19&#45;&gt;0 -->
<g id="edge8" class="edge"><title>19&#45;&gt;0</title>
<path fill="none" stroke="grey" stroke-width="2" d="M299.904,-1813.68C226.051,-1805.15 76,-1775.44 76,-1675 76,-1675 76,-1675 76,-161 76,-114.733 95.381,-102.695 130,-72 153.024,-51.586 185.22,-37.7805 210.012,-29.3902"/>
<polygon fill="grey" stroke="grey" stroke-width="2" points="211.355,-32.6342 219.794,-26.2275 209.202,-25.9737 211.355,-32.6342"/>
</g>
<!-- 19&#45;&gt;18 -->
<g id="edge47" class="edge"><title>19&#45;&gt;18</title>
<path fill="none" stroke="grey" stroke-width="2" d="M349.542,-1799.93C354.64,-1789.82 360.39,-1776.57 363,-1764 372.658,-1717.49 361.735,-1662.26 353.186,-1630.07"/>
<polygon fill="grey" stroke="grey" stroke-width="2" points="356.46,-1628.78 350.411,-1620.09 349.716,-1630.66 356.46,-1628.78"/>
</g>
<!-- 47 -->
<g id="node48" class="node"><title>47</title>
<path fill="none" stroke="#d8ac56" stroke-width="2" d="M342.5,-1764C342.5,-1764 309.5,-1764 309.5,-1764 303.5,-1764 297.5,-1758 297.5,-1752 297.5,-1752 297.5,-1740 297.5,-1740 297.5,-1734 303.5,-1728 309.5,-1728 309.5,-1728 342.5,-1728 342.5,-1728 348.5,-1728 354.5,-1734 354.5,-1740 354.5,-1740 354.5,-1752 354.5,-1752 354.5,-1758 348.5,-1764 342.5,-1764"/>
<text text-anchor="middle" x="326" y="-1743.5" font-family="sans" font-size="10.00">config_L3</text>
</g>
<!-- 19&#45;&gt;47 -->
<g id="edge85" class="edge"><title>19&#45;&gt;47</title>
<path fill="none" stroke="grey" stroke-width="2" d="M336.539,-1799.7C334.997,-1791.98 333.142,-1782.71 331.422,-1774.11"/>
<polygon fill="grey" stroke="grey" stroke-width="2" points="334.814,-1773.22 329.421,-1764.1 327.95,-1774.6 334.814,-1773.22"/>
</g>
<!-- 20 -->
<g id="node21" class="node"><title>20</title>
<path fill="none" stroke="#d8bc56" stroke-width="2" d="M392,-1908C392,-1908 288,-1908 288,-1908 282,-1908 276,-1902 276,-1896 276,-1896 276,-1884 276,-1884 276,-1878 282,-1872 288,-1872 288,-1872 392,-1872 392,-1872 398,-1872 404,-1878 404,-1884 404,-1884 404,-1896 404,-1896 404,-1902 398,-1908 392,-1908"/>
<text text-anchor="middle" x="340" y="-1887.5" font-family="sans" font-size="10.00">ST_instate_staticmaps_L3</text>
</g>
<!-- 20&#45;&gt;19 -->
<g id="edge48" class="edge"><title>20&#45;&gt;19</title>
<path fill="none" stroke="grey" stroke-width="2" d="M340,-1871.7C340,-1863.98 340,-1854.71 340,-1846.11"/>
<polygon fill="grey" stroke="grey" stroke-width="2" points="343.5,-1846.1 340,-1836.1 336.5,-1846.1 343.5,-1846.1"/>
</g>
<!-- 21 -->
<g id="node22" class="node"><title>21</title>
<path fill="none" stroke="#5673d8" stroke-width="2" d="M478,-1980C478,-1980 386,-1980 386,-1980 380,-1980 374,-1974 374,-1968 374,-1968 374,-1956 374,-1956 374,-1950 380,-1944 386,-1944 386,-1944 478,-1944 478,-1944 484,-1944 490,-1950 490,-1956 490,-1956 490,-1968 490,-1968 490,-1974 484,-1980 478,-1980"/>
<text text-anchor="middle" x="432" y="-1959.5" font-family="sans" font-size="10.00">initial_instate_tomls_L3</text>
</g>
<!-- 21&#45;&gt;19 -->
<g id="edge49" class="edge"><title>21&#45;&gt;19</title>
<path fill="none" stroke="grey" stroke-width="2" d="M431.908,-1943.89C431.042,-1924.88 427.298,-1893.99 413,-1872 405.168,-1859.96 393.575,-1849.74 381.923,-1841.58"/>
<polygon fill="grey" stroke="grey" stroke-width="2" points="383.755,-1838.6 373.48,-1836.01 379.9,-1844.44 383.755,-1838.6"/>
</g>
<!-- 21&#45;&gt;20 -->
<g id="edge50" class="edge"><title>21&#45;&gt;20</title>
<path fill="none" stroke="grey" stroke-width="2" d="M409.258,-1943.7C397.56,-1934.8 383.139,-1923.82 370.49,-1914.2"/>
<polygon fill="grey" stroke="grey" stroke-width="2" points="372.558,-1911.37 362.48,-1908.1 368.319,-1916.94 372.558,-1911.37"/>
</g>
<!-- 22 -->
<g id="node23" class="node"><title>22</title>
<path fill="none" stroke="#68d856" stroke-width="2" d="M477,-2052C477,-2052 419,-2052 419,-2052 413,-2052 407,-2046 407,-2040 407,-2040 407,-2028 407,-2028 407,-2022 413,-2016 419,-2016 419,-2016 477,-2016 477,-2016 483,-2016 489,-2022 489,-2028 489,-2028 489,-2040 489,-2040 489,-2046 483,-2052 477,-2052"/>
<text text-anchor="middle" x="448" y="-2031.5" font-family="sans" font-size="10.00">set_params_L2</text>
</g>
<!-- 22&#45;&gt;0 -->
<g id="edge5" class="edge"><title>22&#45;&gt;0</title>
<path fill="none" stroke="grey" stroke-width="2" d="M489.204,-2017.44C536.611,-1996.53 608,-1954.51 608,-1891 608,-1891 608,-1891 608,-161 608,-91.9362 376.292,-42.3914 284.145,-25.4187"/>
<polygon fill="grey" stroke="grey" stroke-width="2" points="284.598,-21.9439 274.134,-23.6022 283.348,-28.8314 284.598,-21.9439"/>
</g>
<!-- 22&#45;&gt;21 -->
<g id="edge51" class="edge"><title>22&#45;&gt;21</title>
<path fill="none" stroke="grey" stroke-width="2" d="M444.045,-2015.7C442.282,-2007.98 440.163,-1998.71 438.197,-1990.11"/>
<polygon fill="grey" stroke="grey" stroke-width="2" points="441.55,-1989.07 435.91,-1980.1 434.726,-1990.63 441.55,-1989.07"/>
</g>
<!-- 23 -->
<g id="node24" class="node"><title>23</title>
<path fill="none" stroke="#5692d8" stroke-width="2" d="M470,-2124C470,-2124 426,-2124 426,-2124 420,-2124 414,-2118 414,-2112 414,-2112 414,-2100 414,-2100 414,-2094 420,-2088 426,-2088 426,-2088 470,-2088 470,-2088 476,-2088 482,-2094 482,-2100 482,-2100 482,-2112 482,-2112 482,-2118 476,-2124 470,-2124"/>
<text text-anchor="middle" x="448" y="-2103.5" font-family="sans" font-size="10.00">evaluate_L2</text>
</g>
<!-- 23&#45;&gt;3 -->
<g id="edge21" class="edge"><title>23&#45;&gt;3</title>
<path fill="none" stroke="grey" stroke-width="2" d="M467.519,-2087.85C477.668,-2078.13 489.66,-2065.28 498,-2052 520.514,-2016.14 532,-2005.34 532,-1963 532,-1963 532,-1963 532,-377 532,-333.801 509,-288.186 492.22,-260.655"/>
<polygon fill="grey" stroke="grey" stroke-width="2" points="495.093,-258.648 486.81,-252.042 489.165,-262.372 495.093,-258.648"/>
</g>
<!-- 23&#45;&gt;22 -->
<g id="edge52" class="edge"><title>23&#45;&gt;22</title>
<path fill="none" stroke="grey" stroke-width="2" d="M448,-2087.7C448,-2079.98 448,-2070.71 448,-2062.11"/>
<polygon fill="grey" stroke="grey" stroke-width="2" points="451.5,-2062.1 448,-2052.1 444.5,-2062.1 451.5,-2062.1"/>
</g>
<!-- 24 -->
<g id="node25" class="node"><title>24</title>
<path fill="none" stroke="#d8a456" stroke-width="2" d="M449.5,-2196C449.5,-2196 416.5,-2196 416.5,-2196 410.5,-2196 404.5,-2190 404.5,-2184 404.5,-2184 404.5,-2172 404.5,-2172 404.5,-2166 410.5,-2160 416.5,-2160 416.5,-2160 449.5,-2160 449.5,-2160 455.5,-2160 461.5,-2166 461.5,-2172 461.5,-2172 461.5,-2184 461.5,-2184 461.5,-2190 455.5,-2196 449.5,-2196"/>
<text text-anchor="middle" x="433" y="-2175.5" font-family="sans" font-size="10.00">wflow_L2</text>
</g>
<!-- 24&#45;&gt;23 -->
<g id="edge53" class="edge"><title>24&#45;&gt;23</title>
<path fill="none" stroke="grey" stroke-width="2" d="M436.708,-2159.7C438.361,-2151.98 440.347,-2142.71 442.19,-2134.11"/>
<polygon fill="grey" stroke="grey" stroke-width="2" points="445.662,-2134.62 444.335,-2124.1 438.817,-2133.15 445.662,-2134.62"/>
</g>
<!-- 25 -->
<g id="node26" class="node"><title>25</title>
<path fill="none" stroke="#d85656" stroke-width="2" d="M495,-2412C495,-2412 439,-2412 439,-2412 433,-2412 427,-2406 427,-2400 427,-2400 427,-2388 427,-2388 427,-2382 433,-2376 439,-2376 439,-2376 495,-2376 495,-2376 501,-2376 507,-2382 507,-2388 507,-2388 507,-2400 507,-2400 507,-2406 501,-2412 495,-2412"/>
<text text-anchor="middle" x="467" y="-2391.5" font-family="sans" font-size="10.00">run_instate_L2</text>
</g>
<!-- 25&#45;&gt;0 -->
<g id="edge1" class="edge"><title>25&#45;&gt;0</title>
<path fill="none" stroke="grey" stroke-width="2" d="M507.171,-2380.99C559.946,-2362.45 646,-2321.41 646,-2251 646,-2251 646,-2251 646,-161 646,-97.071 591.237,-98.3702 533,-72 449.592,-34.232 340.866,-23.3766 284.526,-20.2572"/>
<polygon fill="grey" stroke="grey" stroke-width="2" points="284.469,-16.7501 274.306,-19.7454 284.119,-23.7413 284.469,-16.7501"/>
</g>
<!-- 25&#45;&gt;24 -->
<g id="edge54" class="edge"><title>25&#45;&gt;24</title>
<path fill="none" stroke="grey" stroke-width="2" d="M450.61,-2375.89C442.442,-2366.19 433.389,-2353.34 429,-2340 414.236,-2295.14 420.695,-2239.39 426.8,-2206.65"/>
<polygon fill="grey" stroke="grey" stroke-width="2" points="430.305,-2206.97 428.825,-2196.48 423.44,-2205.6 430.305,-2206.97"/>
</g>
<!-- 45 -->
<g id="node46" class="node"><title>45</title>
<path fill="none" stroke="#56d86b" stroke-width="2" d="M483.5,-2340C483.5,-2340 450.5,-2340 450.5,-2340 444.5,-2340 438.5,-2334 438.5,-2328 438.5,-2328 438.5,-2316 438.5,-2316 438.5,-2310 444.5,-2304 450.5,-2304 450.5,-2304 483.5,-2304 483.5,-2304 489.5,-2304 495.5,-2310 495.5,-2316 495.5,-2316 495.5,-2328 495.5,-2328 495.5,-2334 489.5,-2340 483.5,-2340"/>
<text text-anchor="middle" x="467" y="-2319.5" font-family="sans" font-size="10.00">config_L2</text>
</g>
<!-- 25&#45;&gt;45 -->
<g id="edge83" class="edge"><title>25&#45;&gt;45</title>
<path fill="none" stroke="grey" stroke-width="2" d="M467,-2375.7C467,-2367.98 467,-2358.71 467,-2350.11"/>
<polygon fill="grey" stroke="grey" stroke-width="2" points="470.5,-2350.1 467,-2340.1 463.5,-2350.1 470.5,-2350.1"/>
</g>
<!-- 26 -->
<g id="node27" class="node"><title>26</title>
<path fill="none" stroke="#d87d56" stroke-width="2" d="M468,-2484C468,-2484 364,-2484 364,-2484 358,-2484 352,-2478 352,-2472 352,-2472 352,-2460 352,-2460 352,-2454 358,-2448 364,-2448 364,-2448 468,-2448 468,-2448 474,-2448 480,-2454 480,-2460 480,-2460 480,-2472 480,-2472 480,-2478 474,-2484 468,-2484"/>
<text text-anchor="middle" x="416" y="-2463.5" font-family="sans" font-size="10.00">ST_instate_staticmaps_L2</text>
</g>
<!-- 26&#45;&gt;25 -->
<g id="edge58" class="edge"><title>26&#45;&gt;25</title>
<path fill="none" stroke="grey" stroke-width="2" d="M428.607,-2447.7C434.597,-2439.47 441.876,-2429.48 448.479,-2420.42"/>
<polygon fill="grey" stroke="grey" stroke-width="2" points="451.478,-2422.25 454.538,-2412.1 445.821,-2418.13 451.478,-2422.25"/>
</g>
<!-- 27 -->
<g id="node28" class="node"><title>27</title>
<path fill="none" stroke="#568ad8" stroke-width="2" d="M496,-2556C496,-2556 404,-2556 404,-2556 398,-2556 392,-2550 392,-2544 392,-2544 392,-2532 392,-2532 392,-2526 398,-2520 404,-2520 404,-2520 496,-2520 496,-2520 502,-2520 508,-2526 508,-2532 508,-2532 508,-2544 508,-2544 508,-2550 502,-2556 496,-2556"/>
<text text-anchor="middle" x="450" y="-2535.5" font-family="sans" font-size="10.00">initial_instate_tomls_L2</text>
</g>
<!-- 27&#45;&gt;25 -->
<g id="edge57" class="edge"><title>27&#45;&gt;25</title>
<path fill="none" stroke="grey" stroke-width="2" d="M466.89,-2519.99C475.293,-2510.31 484.582,-2497.46 489,-2484 495.786,-2463.33 489.053,-2439.36 481.304,-2421.51"/>
<polygon fill="grey" stroke="grey" stroke-width="2" points="484.39,-2419.84 476.973,-2412.28 478.052,-2422.82 484.39,-2419.84"/>
</g>
<!-- 27&#45;&gt;26 -->
<g id="edge59" class="edge"><title>27&#45;&gt;26</title>
<path fill="none" stroke="grey" stroke-width="2" d="M441.596,-2519.7C437.725,-2511.73 433.048,-2502.1 428.757,-2493.26"/>
<polygon fill="grey" stroke="grey" stroke-width="2" points="431.825,-2491.57 424.308,-2484.1 425.529,-2494.63 431.825,-2491.57"/>
</g>
<!-- 28 -->
<g id="node29" class="node"><title>28</title>
<path fill="none" stroke="#78d856" stroke-width="2" d="M479,-2628C479,-2628 421,-2628 421,-2628 415,-2628 409,-2622 409,-2616 409,-2616 409,-2604 409,-2604 409,-2598 415,-2592 421,-2592 421,-2592 479,-2592 479,-2592 485,-2592 491,-2598 491,-2604 491,-2604 491,-2616 491,-2616 491,-2622 485,-2628 479,-2628"/>
<text text-anchor="middle" x="450" y="-2607.5" font-family="sans" font-size="10.00">set_params_L1</text>
</g>
<!-- 28&#45;&gt;0 -->
<g id="edge3" class="edge"><title>28&#45;&gt;0</title>
<path fill="none" stroke="grey" stroke-width="2" d="M408.99,-2603.78C304.779,-2589.39 38,-2544.93 38,-2467 38,-2467 38,-2467 38,-161 38,-115.41 53.7535,-100.915 89,-72 123.968,-43.3127 175.148,-29.8978 209.7,-23.8004"/>
<polygon fill="grey" stroke="grey" stroke-width="2" points="210.552,-27.2076 219.853,-22.1343 209.418,-20.3 210.552,-27.2076"/>
</g>
<!-- 28&#45;&gt;27 -->
<g id="edge60" class="edge"><title>28&#45;&gt;27</title>
<path fill="none" stroke="grey" stroke-width="2" d="M450,-2591.7C450,-2583.98 450,-2574.71 450,-2566.11"/>
<polygon fill="grey" stroke="grey" stroke-width="2" points="453.5,-2566.1 450,-2556.1 446.5,-2566.1 453.5,-2566.1"/>
</g>
<!-- 29 -->
<g id="node30" class="node"><title>29</title>
<path fill="none" stroke="#5663d8" stroke-width="2" d="M592,-2700C592,-2700 548,-2700 548,-2700 542,-2700 536,-2694 536,-2688 536,-2688 536,-2676 536,-2676 536,-2670 542,-2664 548,-2664 548,-2664 592,-2664 592,-2664 598,-2664 604,-2670 604,-2676 604,-2676 604,-2688 604,-2688 604,-2694 598,-2700 592,-2700"/>
<text text-anchor="middle" x="570" y="-2679.5" font-family="sans" font-size="10.00">evaluate_L1</text>
</g>
<!-- 29&#45;&gt;3 -->
<g id="edge24" class="edge"><title>29&#45;&gt;3</title>
<path fill="none" stroke="grey" stroke-width="2" d="M570,-2663.95C570,-2637.29 570,-2584.11 570,-2539 570,-2539 570,-2539 570,-377 570,-329.012 532.056,-284.963 504.129,-259.042"/>
<polygon fill="grey" stroke="grey" stroke-width="2" points="506.33,-256.314 496.557,-252.223 501.646,-261.516 506.33,-256.314"/>
</g>
<!-- 29&#45;&gt;28 -->
<g id="edge61" class="edge"><title>29&#45;&gt;28</title>
<path fill="none" stroke="grey" stroke-width="2" d="M540.645,-2663.88C524.955,-2654.72 505.443,-2643.34 488.546,-2633.48"/>
<polygon fill="grey" stroke="grey" stroke-width="2" points="489.87,-2630.21 479.468,-2628.19 486.342,-2636.25 489.87,-2630.21"/>
</g>
<!-- 30 -->
<g id="node31" class="node"><title>30</title>
<path fill="none" stroke="#56d87b" stroke-width="2" d="M586.5,-2772C586.5,-2772 553.5,-2772 553.5,-2772 547.5,-2772 541.5,-2766 541.5,-2760 541.5,-2760 541.5,-2748 541.5,-2748 541.5,-2742 547.5,-2736 553.5,-2736 553.5,-2736 586.5,-2736 586.5,-2736 592.5,-2736 598.5,-2742 598.5,-2748 598.5,-2748 598.5,-2760 598.5,-2760 598.5,-2766 592.5,-2772 586.5,-2772"/>
<text text-anchor="middle" x="570" y="-2751.5" font-family="sans" font-size="10.00">wflow_L1</text>
</g>
<!-- 30&#45;&gt;29 -->
<g id="edge62" class="edge"><title>30&#45;&gt;29</title>
<path fill="none" stroke="grey" stroke-width="2" d="M570,-2735.7C570,-2727.98 570,-2718.71 570,-2710.11"/>
<polygon fill="grey" stroke="grey" stroke-width="2" points="573.5,-2710.1 570,-2700.1 566.5,-2710.1 573.5,-2710.1"/>
</g>
<!-- 31 -->
<g id="node32" class="node"><title>31</title>
<path fill="none" stroke="#56d8a2" stroke-width="2" d="M674,-2988C674,-2988 618,-2988 618,-2988 612,-2988 606,-2982 606,-2976 606,-2976 606,-2964 606,-2964 606,-2958 612,-2952 618,-2952 618,-2952 674,-2952 674,-2952 680,-2952 686,-2958 686,-2964 686,-2964 686,-2976 686,-2976 686,-2982 680,-2988 674,-2988"/>
<text text-anchor="middle" x="646" y="-2967.5" font-family="sans" font-size="10.00">run_instate_L1</text>
</g>
<!-- 31&#45;&gt;0 -->
<g id="edge9" class="edge"><title>31&#45;&gt;0</title>
<path fill="none" stroke="grey" stroke-width="2" d="M653.69,-2951.91C664.794,-2925.62 684,-2873.45 684,-2827 684,-2827 684,-2827 684,-161 684,-103.467 641.662,-97.3194 590,-72 536.645,-45.8506 361.921,-28.5357 284.502,-21.9633"/>
<polygon fill="grey" stroke="grey" stroke-width="2" points="284.503,-18.4513 274.247,-21.1074 283.921,-25.427 284.503,-18.4513"/>
</g>
<!-- 31&#45;&gt;30 -->
<g id="edge65" class="edge"><title>31&#45;&gt;30</title>
<path fill="none" stroke="grey" stroke-width="2" d="M647.688,-2951.92C649.944,-2921.27 651.2,-2855.69 627,-2808 621.363,-2796.89 612.394,-2786.91 603.224,-2778.69"/>
<polygon fill="grey" stroke="grey" stroke-width="2" points="605.442,-2775.98 595.543,-2772.2 600.928,-2781.33 605.442,-2775.98"/>
</g>
<!-- 43 -->
<g id="node44" class="node"><title>43</title>
<path fill="none" stroke="#56d8d0" stroke-width="2" d="M586.5,-2916C586.5,-2916 553.5,-2916 553.5,-2916 547.5,-2916 541.5,-2910 541.5,-2904 541.5,-2904 541.5,-2892 541.5,-2892 541.5,-2886 547.5,-2880 553.5,-2880 553.5,-2880 586.5,-2880 586.5,-2880 592.5,-2880 598.5,-2886 598.5,-2892 598.5,-2892 598.5,-2904 598.5,-2904 598.5,-2910 592.5,-2916 586.5,-2916"/>
<text text-anchor="middle" x="570" y="-2895.5" font-family="sans" font-size="10.00">config_L1</text>
</g>
<!-- 31&#45;&gt;43 -->
<g id="edge81" class="edge"><title>31&#45;&gt;43</title>
<path fill="none" stroke="grey" stroke-width="2" d="M627.213,-2951.7C617.826,-2943.05 606.316,-2932.45 596.087,-2923.03"/>
<polygon fill="grey" stroke="grey" stroke-width="2" points="598.297,-2920.3 588.57,-2916.1 593.555,-2925.45 598.297,-2920.3"/>
</g>
<!-- 32 -->
<g id="node33" class="node"><title>32</title>
<path fill="none" stroke="#56d8c9" stroke-width="2" d="M625,-3060C625,-3060 521,-3060 521,-3060 515,-3060 509,-3054 509,-3048 509,-3048 509,-3036 509,-3036 509,-3030 515,-3024 521,-3024 521,-3024 625,-3024 625,-3024 631,-3024 637,-3030 637,-3036 637,-3036 637,-3048 637,-3048 637,-3054 631,-3060 625,-3060"/>
<text text-anchor="middle" x="573" y="-3039.5" font-family="sans" font-size="10.00">ST_instate_staticmaps_L1</text>
</g>
<!-- 32&#45;&gt;31 -->
<g id="edge66" class="edge"><title>32&#45;&gt;31</title>
<path fill="none" stroke="grey" stroke-width="2" d="M591.045,-3023.7C600.062,-3015.05 611.118,-3004.45 620.943,-2995.03"/>
<polygon fill="grey" stroke="grey" stroke-width="2" points="623.367,-2997.55 628.163,-2988.1 618.522,-2992.5 623.367,-2997.55"/>
</g>
<!-- 33 -->
<g id="node34" class="node"><title>33</title>
<path fill="none" stroke="#56b9d8" stroke-width="2" d="M646,-3132C646,-3132 554,-3132 554,-3132 548,-3132 542,-3126 542,-3120 542,-3120 542,-3108 542,-3108 542,-3102 548,-3096 554,-3096 554,-3096 646,-3096 646,-3096 652,-3096 658,-3102 658,-3108 658,-3108 658,-3120 658,-3120 658,-3126 652,-3132 646,-3132"/>
<text text-anchor="middle" x="600" y="-3111.5" font-family="sans" font-size="10.00">initial_instate_tomls_L1</text>
</g>
<!-- 33&#45;&gt;31 -->
<g id="edge67" class="edge"><title>33&#45;&gt;31</title>
<path fill="none" stroke="grey" stroke-width="2" d="M620.823,-3095.62C630.458,-3086.2 640.885,-3073.7 646,-3060 653.376,-3040.25 652.889,-3016.27 650.826,-2998.18"/>
<polygon fill="grey" stroke="grey" stroke-width="2" points="654.26,-2997.46 649.435,-2988.02 647.324,-2998.41 654.26,-2997.46"/>
</g>
<!-- 33&#45;&gt;32 -->
<g id="edge68" class="edge"><title>33&#45;&gt;32</title>
<path fill="none" stroke="grey" stroke-width="2" d="M593.326,-3095.7C590.285,-3087.81 586.617,-3078.3 583.239,-3069.55"/>
<polygon fill="grey" stroke="grey" stroke-width="2" points="586.462,-3068.17 579.597,-3060.1 579.931,-3070.69 586.462,-3068.17"/>
</g>
<!-- 34 -->
<g id="node35" class="node"><title>34</title>
<path fill="none" stroke="#56d8b1" stroke-width="2" d="M629,-3204C629,-3204 571,-3204 571,-3204 565,-3204 559,-3198 559,-3192 559,-3192 559,-3180 559,-3180 559,-3174 565,-3168 571,-3168 571,-3168 629,-3168 629,-3168 635,-3168 641,-3174 641,-3180 641,-3180 641,-3192 641,-3192 641,-3198 635,-3204 629,-3204"/>
<text text-anchor="middle" x="600" y="-3183.5" font-family="sans" font-size="10.00">set_params_L0</text>
</g>
<!-- 34&#45;&gt;0 -->
<g id="edge10" class="edge"><title>34&#45;&gt;0</title>
<path fill="none" stroke="grey" stroke-width="2" d="M558.76,-3184.09C423.203,-3180.02 0,-3158.07 0,-3043 0,-3043 0,-3043 0,-161 0,-115.846 13.4543,-99.8463 49,-72 96.0998,-35.1022 166.741,-23.8098 209.683,-20.4048"/>
<polygon fill="grey" stroke="grey" stroke-width="2" points="209.976,-23.893 219.712,-19.7135 209.495,-16.9096 209.976,-23.893"/>
</g>
<!-- 34&#45;&gt;33 -->
<g id="edge69" class="edge"><title>34&#45;&gt;33</title>
<path fill="none" stroke="grey" stroke-width="2" d="M600,-3167.7C600,-3159.98 600,-3150.71 600,-3142.11"/>
<polygon fill="grey" stroke="grey" stroke-width="2" points="603.5,-3142.1 600,-3132.1 596.5,-3142.1 603.5,-3142.1"/>
</g>
<!-- 35 -->
<g id="node36" class="node"><title>35</title>
<path fill="none" stroke="#d89c56" stroke-width="2" d="M630,-3276C630,-3276 586,-3276 586,-3276 580,-3276 574,-3270 574,-3264 574,-3264 574,-3252 574,-3252 574,-3246 580,-3240 586,-3240 586,-3240 630,-3240 630,-3240 636,-3240 642,-3246 642,-3252 642,-3252 642,-3264 642,-3264 642,-3270 636,-3276 630,-3276"/>
<text text-anchor="middle" x="608" y="-3255.5" font-family="sans" font-size="10.00">evaluate_L0</text>
</g>
<!-- 35&#45;&gt;3 -->
<g id="edge23" class="edge"><title>35&#45;&gt;3</title>
<path fill="none" stroke="grey" stroke-width="2" d="M635.016,-3239.96C668.728,-3216.37 722,-3170.33 722,-3115 722,-3115 722,-3115 722,-377 722,-288.659 601.78,-254.466 529.084,-241.866"/>
<polygon fill="grey" stroke="grey" stroke-width="2" points="529.595,-238.403 519.159,-240.228 528.455,-245.31 529.595,-238.403"/>
</g>
<!-- 35&#45;&gt;34 -->
<g id="edge70" class="edge"><title>35&#45;&gt;34</title>
<path fill="none" stroke="grey" stroke-width="2" d="M606.022,-3239.7C605.141,-3231.98 604.081,-3222.71 603.099,-3214.11"/>
<polygon fill="grey" stroke="grey" stroke-width="2" points="606.568,-3213.64 601.955,-3204.1 599.613,-3214.44 606.568,-3213.64"/>
</g>
<!-- 36 -->
<g id="node37" class="node"><title>36</title>
<path fill="none" stroke="#70d856" stroke-width="2" d="M624.5,-3348C624.5,-3348 591.5,-3348 591.5,-3348 585.5,-3348 579.5,-3342 579.5,-3336 579.5,-3336 579.5,-3324 579.5,-3324 579.5,-3318 585.5,-3312 591.5,-3312 591.5,-3312 624.5,-3312 624.5,-3312 630.5,-3312 636.5,-3318 636.5,-3324 636.5,-3324 636.5,-3336 636.5,-3336 636.5,-3342 630.5,-3348 624.5,-3348"/>
<text text-anchor="middle" x="608" y="-3327.5" font-family="sans" font-size="10.00">wflow_L0</text>
</g>
<!-- 36&#45;&gt;35 -->
<g id="edge71" class="edge"><title>36&#45;&gt;35</title>
<path fill="none" stroke="grey" stroke-width="2" d="M608,-3311.7C608,-3303.98 608,-3294.71 608,-3286.11"/>
<polygon fill="grey" stroke="grey" stroke-width="2" points="611.5,-3286.1 608,-3276.1 604.5,-3286.1 611.5,-3286.1"/>
</g>
<!-- 37 -->
<g id="node38" class="node"><title>37</title>
<path fill="none" stroke="#56d8c1" stroke-width="2" d="M680,-3564C680,-3564 624,-3564 624,-3564 618,-3564 612,-3558 612,-3552 612,-3552 612,-3540 612,-3540 612,-3534 618,-3528 624,-3528 624,-3528 680,-3528 680,-3528 686,-3528 692,-3534 692,-3540 692,-3540 692,-3552 692,-3552 692,-3558 686,-3564 680,-3564"/>
<text text-anchor="middle" x="652" y="-3543.5" font-family="sans" font-size="10.00">run_instate_L0</text>
</g>
<!-- 37&#45;&gt;0 -->
<g id="edge11" class="edge"><title>37&#45;&gt;0</title>
<path fill="none" stroke="grey" stroke-width="2" d="M677.321,-3527.83C709.243,-3503.92 760,-3457.36 760,-3403 760,-3403 760,-3403 760,-161 760,-94.599 701.513,-97.0051 640,-72 575.714,-45.8675 368.973,-28.0264 283.998,-21.6232"/>
<polygon fill="grey" stroke="grey" stroke-width="2" points="284.252,-18.1325 274.02,-20.8819 283.733,-25.1133 284.252,-18.1325"/>
</g>
<!-- 37&#45;&gt;36 -->
<g id="edge72" class="edge"><title>37&#45;&gt;36</title>
<path fill="none" stroke="grey" stroke-width="2" d="M635.734,-3527.85C627.602,-3518.13 618.545,-3505.28 614,-3492 598.625,-3447.06 601.007,-3390.9 604.354,-3358.18"/>
<polygon fill="grey" stroke="grey" stroke-width="2" points="607.855,-3358.36 605.501,-3348.03 600.9,-3357.58 607.855,-3358.36"/>
</g>
<!-- 41 -->
<g id="node42" class="node"><title>41</title>
<path fill="none" stroke="#d8c356" stroke-width="2" d="M668.5,-3492C668.5,-3492 635.5,-3492 635.5,-3492 629.5,-3492 623.5,-3486 623.5,-3480 623.5,-3480 623.5,-3468 623.5,-3468 623.5,-3462 629.5,-3456 635.5,-3456 635.5,-3456 668.5,-3456 668.5,-3456 674.5,-3456 680.5,-3462 680.5,-3468 680.5,-3468 680.5,-3480 680.5,-3480 680.5,-3486 674.5,-3492 668.5,-3492"/>
<text text-anchor="middle" x="652" y="-3471.5" font-family="sans" font-size="10.00">config_L0</text>
</g>
<!-- 37&#45;&gt;41 -->
<g id="edge79" class="edge"><title>37&#45;&gt;41</title>
<path fill="none" stroke="grey" stroke-width="2" d="M652,-3527.7C652,-3519.98 652,-3510.71 652,-3502.11"/>
<polygon fill="grey" stroke="grey" stroke-width="2" points="655.5,-3502.1 652,-3492.1 648.5,-3502.1 655.5,-3502.1"/>
</g>
<!-- 38 -->
<g id="node39" class="node"><title>38</title>
<path fill="none" stroke="#b6d856" stroke-width="2" d="M696,-3636C696,-3636 592,-3636 592,-3636 586,-3636 580,-3630 580,-3624 580,-3624 580,-3612 580,-3612 580,-3606 586,-3600 592,-3600 592,-3600 696,-3600 696,-3600 702,-3600 708,-3606 708,-3612 708,-3612 708,-3624 708,-3624 708,-3630 702,-3636 696,-3636"/>
<text text-anchor="middle" x="644" y="-3615.5" font-family="sans" font-size="10.00">ST_instate_staticmaps_L0</text>
</g>
<!-- 38&#45;&gt;37 -->
<g id="edge75" class="edge"><title>38&#45;&gt;37</title>
<path fill="none" stroke="grey" stroke-width="2" d="M645.978,-3599.7C646.859,-3591.98 647.919,-3582.71 648.901,-3574.11"/>
<polygon fill="grey" stroke="grey" stroke-width="2" points="652.387,-3574.44 650.045,-3564.1 645.432,-3573.64 652.387,-3574.44"/>
</g>
<!-- 39 -->
<g id="node40" class="node"><title>39</title>
<path fill="none" stroke="#97d856" stroke-width="2" d="M758,-3708C758,-3708 666,-3708 666,-3708 660,-3708 654,-3702 654,-3696 654,-3696 654,-3684 654,-3684 654,-3678 660,-3672 666,-3672 666,-3672 758,-3672 758,-3672 764,-3672 770,-3678 770,-3684 770,-3684 770,-3696 770,-3696 770,-3702 764,-3708 758,-3708"/>
<text text-anchor="middle" x="712" y="-3687.5" font-family="sans" font-size="10.00">initial_instate_tomls_L0</text>
</g>
<!-- 39&#45;&gt;37 -->
<g id="edge76" class="edge"><title>39&#45;&gt;37</title>
<path fill="none" stroke="grey" stroke-width="2" d="M717.692,-3671.66C722.774,-3653 727.888,-3622.93 717,-3600 711.431,-3588.27 701.856,-3578.28 691.741,-3570.25"/>
<polygon fill="grey" stroke="grey" stroke-width="2" points="693.704,-3567.35 683.58,-3564.22 689.547,-3572.98 693.704,-3567.35"/>
</g>
<!-- 39&#45;&gt;38 -->
<g id="edge77" class="edge"><title>39&#45;&gt;38</title>
<path fill="none" stroke="grey" stroke-width="2" d="M695.191,-3671.7C686.874,-3663.14 676.695,-3652.66 667.61,-3643.3"/>
<polygon fill="grey" stroke="grey" stroke-width="2" points="670.094,-3640.84 660.616,-3636.1 665.073,-3645.72 670.094,-3640.84"/>
</g>
<!-- 40 -->
<g id="node41" class="node"><title>40</title>
<path fill="none" stroke="#56d8d8" stroke-width="2" d="M771,-3780C771,-3780 739,-3780 739,-3780 733,-3780 727,-3774 727,-3768 727,-3768 727,-3756 727,-3756 727,-3750 733,-3744 739,-3744 739,-3744 771,-3744 771,-3744 777,-3744 783,-3750 783,-3756 783,-3756 783,-3768 783,-3768 783,-3774 777,-3780 771,-3780"/>
<text text-anchor="middle" x="755" y="-3759.5" font-family="sans" font-size="10.00">init_done</text>
</g>
<!-- 40&#45;&gt;0 -->
<g id="edge12" class="edge"><title>40&#45;&gt;0</title>
<path fill="none" stroke="grey" stroke-width="2" d="M763.91,-3743.58C776.505,-3717.3 798,-3665.62 798,-3619 798,-3619 798,-3619 798,-161 798,-102.492 754.199,-96.3539 701,-72 626.835,-38.0477 379.015,-24.4473 284.269,-20.4069"/>
<polygon fill="grey" stroke="grey" stroke-width="2" points="284.152,-16.8991 274.015,-19.9817 283.861,-23.8931 284.152,-16.8991"/>
</g>
<!-- 40&#45;&gt;39 -->
<g id="edge78" class="edge"><title>40&#45;&gt;39</title>
<path fill="none" stroke="grey" stroke-width="2" d="M744.371,-3743.7C739.372,-3735.56 733.309,-3725.69 727.788,-3716.7"/>
<polygon fill="grey" stroke="grey" stroke-width="2" points="730.723,-3714.79 722.507,-3708.1 724.759,-3718.46 730.723,-3714.79"/>
</g>
<!-- 41&#45;&gt;36 -->
<g id="edge73" class="edge"><title>41&#45;&gt;36</title>
<path fill="none" stroke="grey" stroke-width="2" d="M642.624,-3455.75C637.415,-3445.59 631.165,-3432.34 627,-3420 620.147,-3399.7 615.223,-3375.93 612.107,-3358.06"/>
<polygon fill="grey" stroke="grey" stroke-width="2" points="615.533,-3357.33 610.44,-3348.04 608.628,-3358.48 615.533,-3357.33"/>
</g>
<!-- 42 -->
<g id="node43" class="node"><title>42</title>
<path fill="none" stroke="#56d88a" stroke-width="2" d="M720,-3420C720,-3420 648,-3420 648,-3420 642,-3420 636,-3414 636,-3408 636,-3408 636,-3396 636,-3396 636,-3390 642,-3384 648,-3384 648,-3384 720,-3384 720,-3384 726,-3384 732,-3390 732,-3396 732,-3396 732,-3408 732,-3408 732,-3414 726,-3420 720,-3420"/>
<text text-anchor="middle" x="684" y="-3399.5" font-family="sans" font-size="10.00">create_params_L0</text>
</g>
<!-- 41&#45;&gt;42 -->
<g id="edge80" class="edge"><title>41&#45;&gt;42</title>
<path fill="none" stroke="grey" stroke-width="2" d="M659.91,-3455.7C663.553,-3447.73 667.954,-3438.1 671.994,-3429.26"/>
<polygon fill="grey" stroke="grey" stroke-width="2" points="675.206,-3430.65 676.181,-3420.1 668.84,-3427.74 675.206,-3430.65"/>
</g>
<!-- 42&#45;&gt;36 -->
<g id="edge74" class="edge"><title>42&#45;&gt;36</title>
<path fill="none" stroke="grey" stroke-width="2" d="M665.213,-3383.7C655.826,-3375.05 644.316,-3364.45 634.087,-3355.03"/>
<polygon fill="grey" stroke="grey" stroke-width="2" points="636.297,-3352.3 626.57,-3348.1 631.555,-3357.45 636.297,-3352.3"/>
</g>
<!-- 43&#45;&gt;30 -->
<g id="edge64" class="edge"><title>43&#45;&gt;30</title>
<path fill="none" stroke="grey" stroke-width="2" d="M543.42,-2879.91C531.763,-2870.81 519.315,-2858.49 513,-2844 506.609,-2829.33 506.609,-2822.67 513,-2808 517.933,-2796.68 526.611,-2786.68 535.729,-2778.51"/>
<polygon fill="grey" stroke="grey" stroke-width="2" points="537.989,-2781.19 543.42,-2772.09 533.501,-2775.81 537.989,-2781.19"/>
</g>
<!-- 44 -->
<g id="node45" class="node"><title>44</title>
<path fill="none" stroke="#8fd856" stroke-width="2" d="M606,-2844C606,-2844 534,-2844 534,-2844 528,-2844 522,-2838 522,-2832 522,-2832 522,-2820 522,-2820 522,-2814 528,-2808 534,-2808 534,-2808 606,-2808 606,-2808 612,-2808 618,-2814 618,-2820 618,-2820 618,-2832 618,-2832 618,-2838 612,-2844 606,-2844"/>
<text text-anchor="middle" x="570" y="-2823.5" font-family="sans" font-size="10.00">create_params_L1</text>
</g>
<!-- 43&#45;&gt;44 -->
<g id="edge82" class="edge"><title>43&#45;&gt;44</title>
<path fill="none" stroke="grey" stroke-width="2" d="M570,-2879.7C570,-2871.98 570,-2862.71 570,-2854.11"/>
<polygon fill="grey" stroke="grey" stroke-width="2" points="573.5,-2854.1 570,-2844.1 566.5,-2854.1 573.5,-2854.1"/>
</g>
<!-- 44&#45;&gt;30 -->
<g id="edge63" class="edge"><title>44&#45;&gt;30</title>
<path fill="none" stroke="grey" stroke-width="2" d="M570,-2807.7C570,-2799.98 570,-2790.71 570,-2782.11"/>
<polygon fill="grey" stroke="grey" stroke-width="2" points="573.5,-2782.1 570,-2772.1 566.5,-2782.1 573.5,-2782.1"/>
</g>
<!-- 45&#45;&gt;24 -->
<g id="edge55" class="edge"><title>45&#45;&gt;24</title>
<path fill="none" stroke="grey" stroke-width="2" d="M454.497,-2303.78C448.007,-2293.84 440.682,-2280.8 437,-2268 431.203,-2247.84 430.426,-2224.06 430.976,-2206.16"/>
<polygon fill="grey" stroke="grey" stroke-width="2" points="434.475,-2206.26 431.442,-2196.11 427.483,-2205.94 434.475,-2206.26"/>
</g>
<!-- 46 -->
<g id="node47" class="node"><title>46</title>
<path fill="none" stroke="#56c1d8" stroke-width="2" d="M530,-2268C530,-2268 458,-2268 458,-2268 452,-2268 446,-2262 446,-2256 446,-2256 446,-2244 446,-2244 446,-2238 452,-2232 458,-2232 458,-2232 530,-2232 530,-2232 536,-2232 542,-2238 542,-2244 542,-2244 542,-2256 542,-2256 542,-2262 536,-2268 530,-2268"/>
<text text-anchor="middle" x="494" y="-2247.5" font-family="sans" font-size="10.00">create_params_L2</text>
</g>
<!-- 45&#45;&gt;46 -->
<g id="edge84" class="edge"><title>45&#45;&gt;46</title>
<path fill="none" stroke="grey" stroke-width="2" d="M473.674,-2303.7C476.715,-2295.81 480.383,-2286.3 483.761,-2277.55"/>
<polygon fill="grey" stroke="grey" stroke-width="2" points="487.069,-2278.69 487.403,-2268.1 480.538,-2276.17 487.069,-2278.69"/>
</g>
<!-- 46&#45;&gt;24 -->
<g id="edge56" class="edge"><title>46&#45;&gt;24</title>
<path fill="none" stroke="grey" stroke-width="2" d="M478.921,-2231.7C471.608,-2223.3 462.69,-2213.07 454.665,-2203.86"/>
<polygon fill="grey" stroke="grey" stroke-width="2" points="457.114,-2201.34 447.905,-2196.1 451.836,-2205.94 457.114,-2201.34"/>
</g>
<!-- 47&#45;&gt;18 -->
<g id="edge45" class="edge"><title>47&#45;&gt;18</title>
<path fill="none" stroke="grey" stroke-width="2" d="M328.292,-1727.87C331.53,-1703.67 337.479,-1659.21 341.335,-1630.39"/>
<polygon fill="grey" stroke="grey" stroke-width="2" points="344.843,-1630.57 342.7,-1620.19 337.905,-1629.64 344.843,-1630.57"/>
</g>
<!-- 48 -->
<g id="node49" class="node"><title>48</title>
<path fill="none" stroke="#d86e56" stroke-width="2" d="M305,-1692C305,-1692 233,-1692 233,-1692 227,-1692 221,-1686 221,-1680 221,-1680 221,-1668 221,-1668 221,-1662 227,-1656 233,-1656 233,-1656 305,-1656 305,-1656 311,-1656 317,-1662 317,-1668 317,-1668 317,-1680 317,-1680 317,-1686 311,-1692 305,-1692"/>
<text text-anchor="middle" x="269" y="-1671.5" font-family="sans" font-size="10.00">create_params_L3</text>
</g>
<!-- 47&#45;&gt;48 -->
<g id="edge86" class="edge"><title>47&#45;&gt;48</title>
<path fill="none" stroke="grey" stroke-width="2" d="M311.91,-1727.7C305.077,-1719.3 296.743,-1709.07 289.244,-1699.86"/>
<polygon fill="grey" stroke="grey" stroke-width="2" points="291.956,-1697.65 282.928,-1692.1 286.528,-1702.07 291.956,-1697.65"/>
</g>
<!-- 48&#45;&gt;18 -->
<g id="edge46" class="edge"><title>48&#45;&gt;18</title>
<path fill="none" stroke="grey" stroke-width="2" d="M287.787,-1655.7C297.174,-1647.05 308.684,-1636.45 318.913,-1627.03"/>
<polygon fill="grey" stroke="grey" stroke-width="2" points="321.445,-1629.45 326.43,-1620.1 316.703,-1624.3 321.445,-1629.45"/>
</g>
<!-- 49&#45;&gt;12 -->
<g id="edge37" class="edge"><title>49&#45;&gt;12</title>
<path fill="none" stroke="grey" stroke-width="2" d="M280.673,-1151.87C278.798,-1127.67 275.354,-1083.21 273.122,-1054.39"/>
<polygon fill="grey" stroke="grey" stroke-width="2" points="276.594,-1053.89 272.332,-1044.19 269.614,-1054.43 276.594,-1053.89"/>
</g>
<!-- 50 -->
<g id="node51" class="node"><title>50</title>
<path fill="none" stroke="#56c9d8" stroke-width="2" d="M376,-1116C376,-1116 304,-1116 304,-1116 298,-1116 292,-1110 292,-1104 292,-1104 292,-1092 292,-1092 292,-1086 298,-1080 304,-1080 304,-1080 376,-1080 376,-1080 382,-1080 388,-1086 388,-1092 388,-1092 388,-1104 388,-1104 388,-1110 382,-1116 376,-1116"/>
<text text-anchor="middle" x="340" y="-1095.5" font-family="sans" font-size="10.00">create_params_L4</text>
</g>
<!-- 49&#45;&gt;50 -->
<g id="edge88" class="edge"><title>49&#45;&gt;50</title>
<path fill="none" stroke="grey" stroke-width="2" d="M296.337,-1151.7C303.291,-1143.3 311.77,-1133.07 319.401,-1123.86"/>
<polygon fill="grey" stroke="grey" stroke-width="2" points="322.143,-1126.04 325.828,-1116.1 316.753,-1121.57 322.143,-1126.04"/>
</g>
<!-- 50&#45;&gt;12 -->
<g id="edge36" class="edge"><title>50&#45;&gt;12</title>
<path fill="none" stroke="grey" stroke-width="2" d="M322.944,-1079.7C314.505,-1071.14 304.175,-1060.66 294.957,-1051.3"/>
<polygon fill="grey" stroke="grey" stroke-width="2" points="297.373,-1048.77 287.86,-1044.1 292.387,-1053.68 297.373,-1048.77"/>
</g>
<!-- 51&#45;&gt;6 -->
<g id="edge28" class="edge"><title>51&#45;&gt;6</title>
<path fill="none" stroke="grey" stroke-width="2" d="M368.58,-575.912C380.237,-566.81 392.685,-554.494 399,-540 405.391,-525.332 405.326,-518.696 399,-504 394.211,-492.874 385.81,-482.991 376.95,-474.863"/>
<polygon fill="grey" stroke="grey" stroke-width="2" points="379.003,-472.013 369.124,-468.184 374.459,-477.338 379.003,-472.013"/>
</g>
<!-- 52 -->
<g id="node53" class="node"><title>52</title>
<path fill="none" stroke="#a7d856" stroke-width="2" d="M378,-540C378,-540 306,-540 306,-540 300,-540 294,-534 294,-528 294,-528 294,-516 294,-516 294,-510 300,-504 306,-504 306,-504 378,-504 378,-504 384,-504 390,-510 390,-516 390,-516 390,-528 390,-528 390,-534 384,-540 378,-540"/>
<text text-anchor="middle" x="342" y="-519.5" font-family="sans" font-size="10.00">create_params_L5</text>
</g>
<!-- 51&#45;&gt;52 -->
<g id="edge90" class="edge"><title>51&#45;&gt;52</title>
<path fill="none" stroke="grey" stroke-width="2" d="M342,-575.697C342,-567.983 342,-558.712 342,-550.112"/>
<polygon fill="grey" stroke="grey" stroke-width="2" points="345.5,-550.104 342,-540.104 338.5,-550.104 345.5,-550.104"/>
</g>
<!-- 52&#45;&gt;6 -->
<g id="edge29" class="edge"><title>52&#45;&gt;6</title>
<path fill="none" stroke="grey" stroke-width="2" d="M342.247,-503.697C342.357,-495.983 342.49,-486.712 342.613,-478.112"/>
<polygon fill="grey" stroke="grey" stroke-width="2" points="346.112,-478.153 342.756,-468.104 339.113,-478.053 346.112,-478.153"/>
</g>
</g>
</svg>
