<?xml version="1.0" encoding="UTF-8" standalone="no"?>
<!DOCTYPE svg PUBLIC "-//W3C//DTD SVG 1.1//EN"
 "http://www.w3.org/Graphics/SVG/1.1/DTD/svg11.dtd">
<!-- Generated by graphviz version 2.38.0 (20140413.2041)
 -->
<!-- Title: snakemake_dag Pages: 1 -->
<svg width="131pt" height="620pt"
 viewBox="0.00 0.00 131.00 620.00" xmlns="http://www.w3.org/2000/svg" xmlns:xlink="http://www.w3.org/1999/xlink">
<g id="graph0" class="graph" transform="scale(1 1) rotate(0) translate(4 616)">
<title>snakemake_dag</title>
<polygon fill="white" stroke="none" points="-4,4 -4,-616 127,-616 127,4 -4,4"/>
<!-- 0 -->
<g id="node1" class="node"><title>0</title>
<path fill="none" stroke="#afd856" stroke-width="2" d="M59,-36C59,-36 29,-36 29,-36 23,-36 17,-30 17,-24 17,-24 17,-12 17,-12 17,-6 23,-0 29,-0 29,-0 59,-0 59,-0 65,-0 71,-6 71,-12 71,-12 71,-24 71,-24 71,-30 65,-36 59,-36"/>
<text text-anchor="middle" x="44" y="-15.5" font-family="sans" font-size="10.00">all</text>
</g>
<!-- 1 -->
<g id="node2" class="node"><title>1</title>
<path fill="none" stroke="#d8cb56" stroke-width="2" d="M59,-108C59,-108 29,-108 29,-108 23,-108 17,-102 17,-96 17,-96 17,-84 17,-84 17,-78 23,-72 29,-72 29,-72 59,-72 59,-72 65,-72 71,-78 71,-84 71,-84 71,-96 71,-96 71,-102 65,-108 59,-108"/>
<text text-anchor="middle" x="44" y="-87.5" font-family="sans" font-size="10.00">visualize</text>
</g>
<!-- 1&#45;&gt;0 -->
<g id="edge1" class="edge"><title>1&#45;&gt;0</title>
<path fill="none" stroke="grey" stroke-width="2" d="M44,-71.6966C44,-63.9827 44,-54.7125 44,-46.1124"/>
<polygon fill="grey" stroke="grey" stroke-width="2" points="47.5001,-46.1043 44,-36.1043 40.5001,-46.1044 47.5001,-46.1043"/>
</g>
<!-- 2 -->
<g id="node3" class="node"><title>2</title>
<path fill="none" stroke="#70d856" stroke-width="2" d="M111,-180C111,-180 49,-180 49,-180 43,-180 37,-174 37,-168 37,-168 37,-156 37,-156 37,-150 43,-144 49,-144 49,-144 111,-144 111,-144 117,-144 123,-150 123,-156 123,-156 123,-168 123,-168 123,-174 117,-180 111,-180"/>
<text text-anchor="middle" x="80" y="-159.5" font-family="sans" font-size="10.00">run_final_model</text>
</g>
<!-- 2&#45;&gt;1 -->
<g id="edge2" class="edge"><title>2&#45;&gt;1</title>
<path fill="none" stroke="grey" stroke-width="2" d="M71.1011,-143.697C67.0032,-135.728 62.0512,-126.1 57.5073,-117.264"/>
<polygon fill="grey" stroke="grey" stroke-width="2" points="60.4826,-115.396 52.7965,-108.104 54.2575,-118.598 60.4826,-115.396"/>
</g>
<!-- 3 -->
<g id="node4" class="node"><title>3</title>
<path fill="none" stroke="#5692d8" stroke-width="2" d="M76,-252C76,-252 12,-252 12,-252 6,-252 0,-246 0,-240 0,-240 0,-228 0,-228 0,-222 6,-216 12,-216 12,-216 76,-216 76,-216 82,-216 88,-222 88,-228 88,-228 88,-240 88,-240 88,-246 82,-252 76,-252"/>
<text text-anchor="middle" x="44" y="-231.5" font-family="sans" font-size="10.00">prep_final_stage</text>
</g>
<!-- 3&#45;&gt;1 -->
<g id="edge3" class="edge"><title>3&#45;&gt;1</title>
<path fill="none" stroke="grey" stroke-width="2" d="M37.3478,-215.628C33.7971,-205.421 29.7971,-192.171 28,-180 25.6629,-164.172 25.6629,-159.828 28,-144 29.2776,-135.347 31.6686,-126.149 34.2201,-117.887"/>
<polygon fill="grey" stroke="grey" stroke-width="2" points="37.5499,-118.965 37.3478,-108.372 30.8999,-116.779 37.5499,-118.965"/>
</g>
<!-- 3&#45;&gt;2 -->
<g id="edge4" class="edge"><title>3&#45;&gt;2</title>
<path fill="none" stroke="grey" stroke-width="2" d="M52.8989,-215.697C56.9968,-207.728 61.9488,-198.1 66.4927,-189.264"/>
<polygon fill="grey" stroke="grey" stroke-width="2" points="69.7425,-190.598 71.2035,-180.104 63.5174,-187.396 69.7425,-190.598"/>
</g>
<!-- 4 -->
<g id="node5" class="node"><title>4</title>
<path fill="none" stroke="#56c9d8" stroke-width="2" d="M96.5,-324C96.5,-324 53.5,-324 53.5,-324 47.5,-324 41.5,-318 41.5,-312 41.5,-312 41.5,-300 41.5,-300 41.5,-294 47.5,-288 53.5,-288 53.5,-288 96.5,-288 96.5,-288 102.5,-288 108.5,-294 108.5,-300 108.5,-300 108.5,-312 108.5,-312 108.5,-318 102.5,-324 96.5,-324"/>
<text text-anchor="middle" x="75" y="-303.5" font-family="sans" font-size="10.00">set_params</text>
</g>
<!-- 4&#45;&gt;3 -->
<g id="edge6" class="edge"><title>4&#45;&gt;3</title>
<path fill="none" stroke="grey" stroke-width="2" d="M67.3371,-287.697C63.8083,-279.728 59.5441,-270.1 55.6313,-261.264"/>
<polygon fill="grey" stroke="grey" stroke-width="2" points="58.8243,-259.831 51.5748,-252.104 52.4239,-262.665 58.8243,-259.831"/>
</g>
<!-- 5 -->
<g id="node6" class="node"><title>5</title>
<path fill="none" stroke="#d88d56" stroke-width="2" d="M59,-396C59,-396 29,-396 29,-396 23,-396 17,-390 17,-384 17,-384 17,-372 17,-372 17,-366 23,-360 29,-360 29,-360 59,-360 59,-360 65,-360 71,-366 71,-372 71,-372 71,-384 71,-384 71,-390 65,-396 59,-396"/>
<text text-anchor="middle" x="44" y="-375.5" font-family="sans" font-size="10.00">evaluate</text>
</g>
<!-- 5&#45;&gt;3 -->
<g id="edge5" class="edge"><title>5&#45;&gt;3</title>
<path fill="none" stroke="grey" stroke-width="2" d="M39.1309,-359.979C36.4358,-349.665 33.3626,-336.189 32,-324 30.2224,-308.099 30.2224,-303.901 32,-288 32.9581,-279.43 34.7618,-270.223 36.6852,-261.926"/>
<polygon fill="grey" stroke="grey" stroke-width="2" points="40.1318,-262.568 39.1309,-252.021 33.3358,-260.89 40.1318,-262.568"/>
</g>
<!-- 5&#45;&gt;4 -->
<g id="edge7" class="edge"><title>5&#45;&gt;4</title>
<path fill="none" stroke="grey" stroke-width="2" d="M51.6629,-359.697C55.1917,-351.728 59.4559,-342.1 63.3687,-333.264"/>
<polygon fill="grey" stroke="grey" stroke-width="2" points="66.5761,-334.665 67.4252,-324.104 60.1757,-331.831 66.5761,-334.665"/>
</g>
<!-- 6 -->
<g id="node7" class="node"><title>6</title>
<path fill="none" stroke="#56d8a9" stroke-width="2" d="M59,-468C59,-468 29,-468 29,-468 23,-468 17,-462 17,-456 17,-456 17,-444 17,-444 17,-438 23,-432 29,-432 29,-432 59,-432 59,-432 65,-432 71,-438 71,-444 71,-444 71,-456 71,-456 71,-462 65,-468 59,-468"/>
<text text-anchor="middle" x="44" y="-447.5" font-family="sans" font-size="10.00">wflow</text>
</g>
<!-- 6&#45;&gt;5 -->
<g id="edge8" class="edge"><title>6&#45;&gt;5</title>
<path fill="none" stroke="grey" stroke-width="2" d="M44,-431.697C44,-423.983 44,-414.712 44,-406.112"/>
<polygon fill="grey" stroke="grey" stroke-width="2" points="47.5001,-406.104 44,-396.104 40.5001,-406.104 47.5001,-406.104"/>
</g>
<!-- 7 -->
<g id="node8" class="node"><title>7</title>
<path fill="none" stroke="#d85656" stroke-width="2" d="M59,-612C59,-612 29,-612 29,-612 23,-612 17,-606 17,-600 17,-600 17,-588 17,-588 17,-582 23,-576 29,-576 29,-576 59,-576 59,-576 65,-576 71,-582 71,-588 71,-588 71,-600 71,-600 71,-606 65,-612 59,-612"/>
<text text-anchor="middle" x="44" y="-591.5" font-family="sans" font-size="10.00">config</text>
</g>
<!-- 7&#45;&gt;6 -->
<g id="edge10" class="edge"><title>7&#45;&gt;6</title>
<path fill="none" stroke="grey" stroke-width="2" d="M37.762,-575.593C34.4326,-565.374 30.6826,-552.124 29,-540 26.8005,-524.152 26.8005,-519.848 29,-504 30.1831,-495.475 32.3883,-486.394 34.7507,-478.201"/>
<polygon fill="grey" stroke="grey" stroke-width="2" points="38.1684,-478.994 37.762,-468.407 31.4776,-476.937 38.1684,-478.994"/>
</g>
<!-- 8 -->
<g id="node9" class="node"><title>8</title>
<path fill="none" stroke="#56d873" stroke-width="2" d="M107.5,-540C107.5,-540 50.5,-540 50.5,-540 44.5,-540 38.5,-534 38.5,-528 38.5,-528 38.5,-516 38.5,-516 38.5,-510 44.5,-504 50.5,-504 50.5,-504 107.5,-504 107.5,-504 113.5,-504 119.5,-510 119.5,-516 119.5,-516 119.5,-528 119.5,-528 119.5,-534 113.5,-540 107.5,-540"/>
<text text-anchor="middle" x="79" y="-519.5" font-family="sans" font-size="10.00">create_params</text>
</g>
<!-- 7&#45;&gt;8 -->
<g id="edge11" class="edge"><title>7&#45;&gt;8</title>
<path fill="none" stroke="grey" stroke-width="2" d="M52.6517,-575.697C56.6358,-567.728 61.4502,-558.1 65.8679,-549.264"/>
<polygon fill="grey" stroke="grey" stroke-width="2" points="69.1061,-550.614 70.4478,-540.104 62.8451,-547.483 69.1061,-550.614"/>
</g>
<!-- 8&#45;&gt;6 -->
<g id="edge9" class="edge"><title>8&#45;&gt;6</title>
<path fill="none" stroke="grey" stroke-width="2" d="M70.3483,-503.697C66.3642,-495.728 61.5498,-486.1 57.1321,-477.264"/>
<polygon fill="grey" stroke="grey" stroke-width="2" points="60.1549,-475.483 52.5522,-468.104 53.8939,-478.614 60.1549,-475.483"/>
</g>
</g>
</svg>
