<?xml version="1.0" encoding="UTF-8" standalone="no"?>
<!DOCTYPE svg PUBLIC "-//W3C//DTD SVG 1.1//EN"
 "http://www.w3.org/Graphics/SVG/1.1/DTD/svg11.dtd">
<!-- Generated by graphviz version 2.38.0 (20140413.2041)
 -->
<!-- Title: snakemake_dag Pages: 1 -->
<svg width="626pt" height="3788pt"
 viewBox="0.00 0.00 626.00 3788.00" xmlns="http://www.w3.org/2000/svg" xmlns:xlink="http://www.w3.org/1999/xlink">
<g id="graph0" class="graph" transform="scale(1 1) rotate(0) translate(4 3784)">
<title>snakemake_dag</title>
<polygon fill="white" stroke="none" points="-4,4 -4,-3784 622,-3784 622,4 -4,4"/>
<!-- 0 -->
<g id="node1" class="node"><title>0</title>
<path fill="none" stroke="#68d856" stroke-width="2" d="M262,-36C262,-36 232,-36 232,-36 226,-36 220,-30 220,-24 220,-24 220,-12 220,-12 220,-6 226,-0 232,-0 232,-0 262,-0 262,-0 268,-0 274,-6 274,-12 274,-12 274,-24 274,-24 274,-30 268,-36 262,-36"/>
<text text-anchor="middle" x="247" y="-15.5" font-family="sans" font-size="10.00">all</text>
</g>
<!-- 1 -->
<g id="node2" class="node"><title>1</title>
<path fill="none" stroke="#d87556" stroke-width="2" d="M526,-108C526,-108 496,-108 496,-108 490,-108 484,-102 484,-96 484,-96 484,-84 484,-84 484,-78 490,-72 496,-72 496,-72 526,-72 526,-72 532,-72 538,-78 538,-84 538,-84 538,-96 538,-96 538,-102 532,-108 526,-108"/>
<text text-anchor="middle" x="511" y="-87.5" font-family="sans" font-size="10.00">visualize</text>
</g>
<!-- 1&#45;&gt;0 -->
<g id="edge2" class="edge"><title>1&#45;&gt;0</title>
<path fill="none" stroke="grey" stroke-width="2" d="M483.88,-77.0444C479.294,-75.2281 474.545,-73.472 470,-72 405.727,-51.1846 328.625,-34.6679 283.978,-25.9032"/>
<polygon fill="grey" stroke="grey" stroke-width="2" points="284.641,-22.4666 274.157,-23.9978 283.308,-29.3385 284.641,-22.4666"/>
</g>
<!-- 2 -->
<g id="node3" class="node"><title>2</title>
<path fill="none" stroke="#5663d8" stroke-width="2" d="M604,-180C604,-180 542,-180 542,-180 536,-180 530,-174 530,-168 530,-168 530,-156 530,-156 530,-150 536,-144 542,-144 542,-144 604,-144 604,-144 610,-144 616,-150 616,-156 616,-156 616,-168 616,-168 616,-174 610,-180 604,-180"/>
<text text-anchor="middle" x="573" y="-159.5" font-family="sans" font-size="10.00">run_final_model</text>
</g>
<!-- 2&#45;&gt;1 -->
<g id="edge16" class="edge"><title>2&#45;&gt;1</title>
<path fill="none" stroke="grey" stroke-width="2" d="M557.674,-143.697C550.241,-135.305 541.177,-125.07 533.02,-115.861"/>
<polygon fill="grey" stroke="grey" stroke-width="2" points="535.4,-113.27 526.15,-108.104 530.16,-117.911 535.4,-113.27"/>
</g>
<!-- 3 -->
<g id="node4" class="node"><title>3</title>
<path fill="none" stroke="#56d892" stroke-width="2" d="M560,-252C560,-252 496,-252 496,-252 490,-252 484,-246 484,-240 484,-240 484,-228 484,-228 484,-222 490,-216 496,-216 496,-216 560,-216 560,-216 566,-216 572,-222 572,-228 572,-228 572,-240 572,-240 572,-246 566,-252 560,-252"/>
<text text-anchor="middle" x="528" y="-231.5" font-family="sans" font-size="10.00">prep_final_stage</text>
</g>
<!-- 3&#45;&gt;1 -->
<g id="edge15" class="edge"><title>3&#45;&gt;1</title>
<path fill="none" stroke="grey" stroke-width="2" d="M525.646,-215.825C524.246,-205.457 522.464,-191.977 521,-180 518.47,-159.295 515.845,-135.849 513.92,-118.221"/>
<polygon fill="grey" stroke="grey" stroke-width="2" points="517.377,-117.637 512.819,-108.073 510.418,-118.393 517.377,-117.637"/>
</g>
<!-- 3&#45;&gt;2 -->
<g id="edge17" class="edge"><title>3&#45;&gt;2</title>
<path fill="none" stroke="grey" stroke-width="2" d="M539.124,-215.697C544.355,-207.559 550.7,-197.689 556.478,-188.701"/>
<polygon fill="grey" stroke="grey" stroke-width="2" points="559.541,-190.409 562.004,-180.104 553.653,-186.623 559.541,-190.409"/>
</g>
<!-- 4 -->
<g id="node5" class="node"><title>4</title>
<path fill="none" stroke="#56a9d8" stroke-width="2" d="M523,-324C523,-324 465,-324 465,-324 459,-324 453,-318 453,-312 453,-312 453,-300 453,-300 453,-294 459,-288 465,-288 465,-288 523,-288 523,-288 529,-288 535,-294 535,-300 535,-300 535,-312 535,-312 535,-318 529,-324 523,-324"/>
<text text-anchor="middle" x="494" y="-303.5" font-family="sans" font-size="10.00">set_params_L5</text>
</g>
<!-- 4&#45;&gt;0 -->
<g id="edge3" class="edge"><title>4&#45;&gt;0</title>
<path fill="none" stroke="grey" stroke-width="2" d="M487.358,-287.972C483.469,-277.656 478.626,-264.179 475,-252 451.531,-173.168 488.851,-131.44 432,-72 393.361,-31.6014 326.201,-21.3705 284.308,-19.1302"/>
<polygon fill="grey" stroke="grey" stroke-width="2" points="284.369,-15.6299 274.235,-18.7193 284.084,-22.6241 284.369,-15.6299"/>
</g>
<!-- 4&#45;&gt;3 -->
<g id="edge18" class="edge"><title>4&#45;&gt;3</title>
<path fill="none" stroke="grey" stroke-width="2" d="M502.404,-287.697C506.275,-279.728 510.952,-270.1 515.243,-261.264"/>
<polygon fill="grey" stroke="grey" stroke-width="2" points="518.471,-262.629 519.692,-252.104 512.175,-259.57 518.471,-262.629"/>
</g>
<!-- 5 -->
<g id="node6" class="node"><title>5</title>
<path fill="none" stroke="#d87d56" stroke-width="2" d="M516,-396C516,-396 472,-396 472,-396 466,-396 460,-390 460,-384 460,-384 460,-372 460,-372 460,-366 466,-360 472,-360 472,-360 516,-360 516,-360 522,-360 528,-366 528,-372 528,-372 528,-384 528,-384 528,-390 522,-396 516,-396"/>
<text text-anchor="middle" x="494" y="-375.5" font-family="sans" font-size="10.00">evaluate_L5</text>
</g>
<!-- 5&#45;&gt;4 -->
<g id="edge19" class="edge"><title>5&#45;&gt;4</title>
<path fill="none" stroke="grey" stroke-width="2" d="M494,-359.697C494,-351.983 494,-342.712 494,-334.112"/>
<polygon fill="grey" stroke="grey" stroke-width="2" points="497.5,-334.104 494,-324.104 490.5,-334.104 497.5,-334.104"/>
</g>
<!-- 6 -->
<g id="node7" class="node"><title>6</title>
<path fill="none" stroke="#70d856" stroke-width="2" d="M510.5,-468C510.5,-468 477.5,-468 477.5,-468 471.5,-468 465.5,-462 465.5,-456 465.5,-456 465.5,-444 465.5,-444 465.5,-438 471.5,-432 477.5,-432 477.5,-432 510.5,-432 510.5,-432 516.5,-432 522.5,-438 522.5,-444 522.5,-444 522.5,-456 522.5,-456 522.5,-462 516.5,-468 510.5,-468"/>
<text text-anchor="middle" x="494" y="-447.5" font-family="sans" font-size="10.00">wflow_L5</text>
</g>
<!-- 6&#45;&gt;5 -->
<g id="edge20" class="edge"><title>6&#45;&gt;5</title>
<path fill="none" stroke="grey" stroke-width="2" d="M494,-431.697C494,-423.983 494,-414.712 494,-406.112"/>
<polygon fill="grey" stroke="grey" stroke-width="2" points="497.5,-406.104 494,-396.104 490.5,-406.104 497.5,-406.104"/>
</g>
<!-- 7 -->
<g id="node8" class="node"><title>7</title>
<path fill="none" stroke="#88d856" stroke-width="2" d="M484,-684C484,-684 428,-684 428,-684 422,-684 416,-678 416,-672 416,-672 416,-660 416,-660 416,-654 422,-648 428,-648 428,-648 484,-648 484,-648 490,-648 496,-654 496,-660 496,-660 496,-672 496,-672 496,-678 490,-684 484,-684"/>
<text text-anchor="middle" x="456" y="-663.5" font-family="sans" font-size="10.00">run_instate_L5</text>
</g>
<!-- 7&#45;&gt;0 -->
<g id="edge10" class="edge"><title>7&#45;&gt;0</title>
<path fill="none" stroke="grey" stroke-width="2" d="M448.31,-647.907C437.206,-621.623 418,-569.447 418,-523 418,-523 418,-523 418,-161 418,-120.031 421.748,-102.141 394,-72 365.565,-41.1129 317.792,-28.201 284.45,-22.8191"/>
<polygon fill="grey" stroke="grey" stroke-width="2" points="284.575,-19.3005 274.175,-21.3231 283.566,-26.2274 284.575,-19.3005"/>
</g>
<!-- 7&#45;&gt;6 -->
<g id="edge23" class="edge"><title>7&#45;&gt;6</title>
<path fill="none" stroke="grey" stroke-width="2" d="M459.045,-647.849C465.633,-610.753 481.249,-522.81 489.187,-478.103"/>
<polygon fill="grey" stroke="grey" stroke-width="2" points="492.638,-478.69 490.94,-468.232 485.746,-477.466 492.638,-478.69"/>
</g>
<!-- 51 -->
<g id="node52" class="node"><title>51</title>
<path fill="none" stroke="#56a2d8" stroke-width="2" d="M529.5,-612C529.5,-612 496.5,-612 496.5,-612 490.5,-612 484.5,-606 484.5,-600 484.5,-600 484.5,-588 484.5,-588 484.5,-582 490.5,-576 496.5,-576 496.5,-576 529.5,-576 529.5,-576 535.5,-576 541.5,-582 541.5,-588 541.5,-588 541.5,-600 541.5,-600 541.5,-606 535.5,-612 529.5,-612"/>
<text text-anchor="middle" x="513" y="-591.5" font-family="sans" font-size="10.00">config_L5</text>
</g>
<!-- 7&#45;&gt;51 -->
<g id="edge83" class="edge"><title>7&#45;&gt;51</title>
<path fill="none" stroke="grey" stroke-width="2" d="M470.09,-647.697C476.923,-639.305 485.257,-629.07 492.756,-619.861"/>
<polygon fill="grey" stroke="grey" stroke-width="2" points="495.472,-622.069 499.072,-612.104 490.044,-617.649 495.472,-622.069"/>
</g>
<!-- 8 -->
<g id="node9" class="node"><title>8</title>
<path fill="none" stroke="#8fd856" stroke-width="2" d="M581,-756C581,-756 477,-756 477,-756 471,-756 465,-750 465,-744 465,-744 465,-732 465,-732 465,-726 471,-720 477,-720 477,-720 581,-720 581,-720 587,-720 593,-726 593,-732 593,-732 593,-744 593,-744 593,-750 587,-756 581,-756"/>
<text text-anchor="middle" x="529" y="-735.5" font-family="sans" font-size="10.00">ST_instate_staticmaps_L5</text>
</g>
<!-- 8&#45;&gt;7 -->
<g id="edge25" class="edge"><title>8&#45;&gt;7</title>
<path fill="none" stroke="grey" stroke-width="2" d="M510.955,-719.697C501.938,-711.05 490.882,-700.449 481.057,-691.027"/>
<polygon fill="grey" stroke="grey" stroke-width="2" points="483.478,-688.499 473.837,-684.104 478.633,-693.552 483.478,-688.499"/>
</g>
<!-- 9 -->
<g id="node10" class="node"><title>9</title>
<path fill="none" stroke="#d6d856" stroke-width="2" d="M512,-828C512,-828 420,-828 420,-828 414,-828 408,-822 408,-816 408,-816 408,-804 408,-804 408,-798 414,-792 420,-792 420,-792 512,-792 512,-792 518,-792 524,-798 524,-804 524,-804 524,-816 524,-816 524,-822 518,-828 512,-828"/>
<text text-anchor="middle" x="466" y="-807.5" font-family="sans" font-size="10.00">initial_instate_tomls_L5</text>
</g>
<!-- 9&#45;&gt;7 -->
<g id="edge24" class="edge"><title>9&#45;&gt;7</title>
<path fill="none" stroke="grey" stroke-width="2" d="M461.941,-791.929C459.694,-781.598 457.133,-768.12 456,-756 454.07,-735.361 454.163,-711.912 454.688,-694.266"/>
<polygon fill="grey" stroke="grey" stroke-width="2" points="458.192,-694.226 455.057,-684.106 451.197,-693.972 458.192,-694.226"/>
</g>
<!-- 9&#45;&gt;8 -->
<g id="edge26" class="edge"><title>9&#45;&gt;8</title>
<path fill="none" stroke="grey" stroke-width="2" d="M481.573,-791.697C489.202,-783.22 498.523,-772.864 506.876,-763.583"/>
<polygon fill="grey" stroke="grey" stroke-width="2" points="509.518,-765.879 513.606,-756.104 504.315,-761.196 509.518,-765.879"/>
</g>
<!-- 10 -->
<g id="node11" class="node"><title>10</title>
<path fill="none" stroke="#d8c356" stroke-width="2" d="M447,-900C447,-900 389,-900 389,-900 383,-900 377,-894 377,-888 377,-888 377,-876 377,-876 377,-870 383,-864 389,-864 389,-864 447,-864 447,-864 453,-864 459,-870 459,-876 459,-876 459,-888 459,-888 459,-894 453,-900 447,-900"/>
<text text-anchor="middle" x="418" y="-879.5" font-family="sans" font-size="10.00">set_params_L4</text>
</g>
<!-- 10&#45;&gt;0 -->
<g id="edge13" class="edge"><title>10&#45;&gt;0</title>
<path fill="none" stroke="grey" stroke-width="2" d="M410.31,-863.907C399.206,-837.623 380,-785.447 380,-739 380,-739 380,-739 380,-161 380,-120.031 382.104,-103.576 356,-72 337.699,-49.8627 307.925,-36.2646 284.116,-28.3931"/>
<polygon fill="grey" stroke="grey" stroke-width="2" points="284.916,-24.9769 274.328,-25.3621 282.845,-31.6637 284.916,-24.9769"/>
</g>
<!-- 10&#45;&gt;9 -->
<g id="edge27" class="edge"><title>10&#45;&gt;9</title>
<path fill="none" stroke="grey" stroke-width="2" d="M429.865,-863.697C435.503,-855.474 442.354,-845.483 448.569,-836.421"/>
<polygon fill="grey" stroke="grey" stroke-width="2" points="451.503,-838.331 454.271,-828.104 445.729,-834.372 451.503,-838.331"/>
</g>
<!-- 11 -->
<g id="node12" class="node"><title>11</title>
<path fill="none" stroke="#56c9d8" stroke-width="2" d="M440,-972C440,-972 396,-972 396,-972 390,-972 384,-966 384,-960 384,-960 384,-948 384,-948 384,-942 390,-936 396,-936 396,-936 440,-936 440,-936 446,-936 452,-942 452,-948 452,-948 452,-960 452,-960 452,-966 446,-972 440,-972"/>
<text text-anchor="middle" x="418" y="-951.5" font-family="sans" font-size="10.00">evaluate_L4</text>
</g>
<!-- 11&#45;&gt;10 -->
<g id="edge28" class="edge"><title>11&#45;&gt;10</title>
<path fill="none" stroke="grey" stroke-width="2" d="M418,-935.697C418,-927.983 418,-918.712 418,-910.112"/>
<polygon fill="grey" stroke="grey" stroke-width="2" points="421.5,-910.104 418,-900.104 414.5,-910.104 421.5,-910.104"/>
</g>
<!-- 12 -->
<g id="node13" class="node"><title>12</title>
<path fill="none" stroke="#56d8d0" stroke-width="2" d="M434.5,-1044C434.5,-1044 401.5,-1044 401.5,-1044 395.5,-1044 389.5,-1038 389.5,-1032 389.5,-1032 389.5,-1020 389.5,-1020 389.5,-1014 395.5,-1008 401.5,-1008 401.5,-1008 434.5,-1008 434.5,-1008 440.5,-1008 446.5,-1014 446.5,-1020 446.5,-1020 446.5,-1032 446.5,-1032 446.5,-1038 440.5,-1044 434.5,-1044"/>
<text text-anchor="middle" x="418" y="-1023.5" font-family="sans" font-size="10.00">wflow_L4</text>
</g>
<!-- 12&#45;&gt;11 -->
<g id="edge29" class="edge"><title>12&#45;&gt;11</title>
<path fill="none" stroke="grey" stroke-width="2" d="M418,-1007.7C418,-999.983 418,-990.712 418,-982.112"/>
<polygon fill="grey" stroke="grey" stroke-width="2" points="421.5,-982.104 418,-972.104 414.5,-982.104 421.5,-982.104"/>
</g>
<!-- 13 -->
<g id="node14" class="node"><title>13</title>
<path fill="none" stroke="#56d863" stroke-width="2" d="M408,-1260C408,-1260 352,-1260 352,-1260 346,-1260 340,-1254 340,-1248 340,-1248 340,-1236 340,-1236 340,-1230 346,-1224 352,-1224 352,-1224 408,-1224 408,-1224 414,-1224 420,-1230 420,-1236 420,-1236 420,-1248 420,-1248 420,-1254 414,-1260 408,-1260"/>
<text text-anchor="middle" x="380" y="-1239.5" font-family="sans" font-size="10.00">run_instate_L4</text>
</g>
<!-- 13&#45;&gt;0 -->
<g id="edge4" class="edge"><title>13&#45;&gt;0</title>
<path fill="none" stroke="grey" stroke-width="2" d="M372.31,-1223.91C361.206,-1197.62 342,-1145.45 342,-1099 342,-1099 342,-1099 342,-161 342,-120.031 341.013,-105.894 318,-72 309.014,-58.7651 295.611,-47.5365 282.863,-38.8684"/>
<polygon fill="grey" stroke="grey" stroke-width="2" points="284.506,-35.7627 274.205,-33.2832 280.711,-41.6451 284.506,-35.7627"/>
</g>
<!-- 13&#45;&gt;12 -->
<g id="edge31" class="edge"><title>13&#45;&gt;12</title>
<path fill="none" stroke="grey" stroke-width="2" d="M383.045,-1223.85C389.633,-1186.75 405.249,-1098.81 413.187,-1054.1"/>
<polygon fill="grey" stroke="grey" stroke-width="2" points="416.638,-1054.69 414.94,-1044.23 409.746,-1053.47 416.638,-1054.69"/>
</g>
<!-- 49 -->
<g id="node50" class="node"><title>49</title>
<path fill="none" stroke="#d8b456" stroke-width="2" d="M453.5,-1188C453.5,-1188 420.5,-1188 420.5,-1188 414.5,-1188 408.5,-1182 408.5,-1176 408.5,-1176 408.5,-1164 408.5,-1164 408.5,-1158 414.5,-1152 420.5,-1152 420.5,-1152 453.5,-1152 453.5,-1152 459.5,-1152 465.5,-1158 465.5,-1164 465.5,-1164 465.5,-1176 465.5,-1176 465.5,-1182 459.5,-1188 453.5,-1188"/>
<text text-anchor="middle" x="437" y="-1167.5" font-family="sans" font-size="10.00">config_L4</text>
</g>
<!-- 13&#45;&gt;49 -->
<g id="edge81" class="edge"><title>13&#45;&gt;49</title>
<path fill="none" stroke="grey" stroke-width="2" d="M394.09,-1223.7C400.923,-1215.3 409.257,-1205.07 416.756,-1195.86"/>
<polygon fill="grey" stroke="grey" stroke-width="2" points="419.472,-1198.07 423.072,-1188.1 414.044,-1193.65 419.472,-1198.07"/>
</g>
<!-- 14 -->
<g id="node15" class="node"><title>14</title>
<path fill="none" stroke="#5692d8" stroke-width="2" d="M505,-1332C505,-1332 401,-1332 401,-1332 395,-1332 389,-1326 389,-1320 389,-1320 389,-1308 389,-1308 389,-1302 395,-1296 401,-1296 401,-1296 505,-1296 505,-1296 511,-1296 517,-1302 517,-1308 517,-1308 517,-1320 517,-1320 517,-1326 511,-1332 505,-1332"/>
<text text-anchor="middle" x="453" y="-1311.5" font-family="sans" font-size="10.00">ST_instate_staticmaps_L4</text>
</g>
<!-- 14&#45;&gt;13 -->
<g id="edge34" class="edge"><title>14&#45;&gt;13</title>
<path fill="none" stroke="grey" stroke-width="2" d="M434.955,-1295.7C425.938,-1287.05 414.882,-1276.45 405.057,-1267.03"/>
<polygon fill="grey" stroke="grey" stroke-width="2" points="407.478,-1264.5 397.837,-1260.1 402.633,-1269.55 407.478,-1264.5"/>
</g>
<!-- 15 -->
<g id="node16" class="node"><title>15</title>
<path fill="none" stroke="#afd856" stroke-width="2" d="M436,-1404C436,-1404 344,-1404 344,-1404 338,-1404 332,-1398 332,-1392 332,-1392 332,-1380 332,-1380 332,-1374 338,-1368 344,-1368 344,-1368 436,-1368 436,-1368 442,-1368 448,-1374 448,-1380 448,-1380 448,-1392 448,-1392 448,-1398 442,-1404 436,-1404"/>
<text text-anchor="middle" x="390" y="-1383.5" font-family="sans" font-size="10.00">initial_instate_tomls_L4</text>
</g>
<!-- 15&#45;&gt;13 -->
<g id="edge33" class="edge"><title>15&#45;&gt;13</title>
<path fill="none" stroke="grey" stroke-width="2" d="M385.941,-1367.93C383.694,-1357.6 381.133,-1344.12 380,-1332 378.07,-1311.36 378.163,-1287.91 378.688,-1270.27"/>
<polygon fill="grey" stroke="grey" stroke-width="2" points="382.192,-1270.23 379.057,-1260.11 375.197,-1269.97 382.192,-1270.23"/>
</g>
<!-- 15&#45;&gt;14 -->
<g id="edge35" class="edge"><title>15&#45;&gt;14</title>
<path fill="none" stroke="grey" stroke-width="2" d="M405.573,-1367.7C413.202,-1359.22 422.523,-1348.86 430.876,-1339.58"/>
<polygon fill="grey" stroke="grey" stroke-width="2" points="433.518,-1341.88 437.606,-1332.1 428.315,-1337.2 433.518,-1341.88"/>
</g>
<!-- 16 -->
<g id="node17" class="node"><title>16</title>
<path fill="none" stroke="#97d856" stroke-width="2" d="M371,-1476C371,-1476 313,-1476 313,-1476 307,-1476 301,-1470 301,-1464 301,-1464 301,-1452 301,-1452 301,-1446 307,-1440 313,-1440 313,-1440 371,-1440 371,-1440 377,-1440 383,-1446 383,-1452 383,-1452 383,-1464 383,-1464 383,-1470 377,-1476 371,-1476"/>
<text text-anchor="middle" x="342" y="-1455.5" font-family="sans" font-size="10.00">set_params_L3</text>
</g>
<!-- 16&#45;&gt;0 -->
<g id="edge11" class="edge"><title>16&#45;&gt;0</title>
<path fill="none" stroke="grey" stroke-width="2" d="M334.31,-1439.91C323.206,-1413.62 304,-1361.45 304,-1315 304,-1315 304,-1315 304,-161 304,-120.031 296.336,-109.571 280,-72 276.001,-62.8022 270.581,-53.3292 265.291,-44.9817"/>
<polygon fill="grey" stroke="grey" stroke-width="2" points="268.09,-42.8677 259.674,-36.4317 262.239,-46.7112 268.09,-42.8677"/>
</g>
<!-- 16&#45;&gt;15 -->
<g id="edge36" class="edge"><title>16&#45;&gt;15</title>
<path fill="none" stroke="grey" stroke-width="2" d="M353.865,-1439.7C359.503,-1431.47 366.354,-1421.48 372.569,-1412.42"/>
<polygon fill="grey" stroke="grey" stroke-width="2" points="375.503,-1414.33 378.271,-1404.1 369.729,-1410.37 375.503,-1414.33"/>
</g>
<!-- 17 -->
<g id="node18" class="node"><title>17</title>
<path fill="none" stroke="#56d0d8" stroke-width="2" d="M364,-1548C364,-1548 320,-1548 320,-1548 314,-1548 308,-1542 308,-1536 308,-1536 308,-1524 308,-1524 308,-1518 314,-1512 320,-1512 320,-1512 364,-1512 364,-1512 370,-1512 376,-1518 376,-1524 376,-1524 376,-1536 376,-1536 376,-1542 370,-1548 364,-1548"/>
<text text-anchor="middle" x="342" y="-1527.5" font-family="sans" font-size="10.00">evaluate_L3</text>
</g>
<!-- 17&#45;&gt;16 -->
<g id="edge37" class="edge"><title>17&#45;&gt;16</title>
<path fill="none" stroke="grey" stroke-width="2" d="M342,-1511.7C342,-1503.98 342,-1494.71 342,-1486.11"/>
<polygon fill="grey" stroke="grey" stroke-width="2" points="345.5,-1486.1 342,-1476.1 338.5,-1486.1 345.5,-1486.1"/>
</g>
<!-- 18 -->
<g id="node19" class="node"><title>18</title>
<path fill="none" stroke="#d8cb56" stroke-width="2" d="M358.5,-1620C358.5,-1620 325.5,-1620 325.5,-1620 319.5,-1620 313.5,-1614 313.5,-1608 313.5,-1608 313.5,-1596 313.5,-1596 313.5,-1590 319.5,-1584 325.5,-1584 325.5,-1584 358.5,-1584 358.5,-1584 364.5,-1584 370.5,-1590 370.5,-1596 370.5,-1596 370.5,-1608 370.5,-1608 370.5,-1614 364.5,-1620 358.5,-1620"/>
<text text-anchor="middle" x="342" y="-1599.5" font-family="sans" font-size="10.00">wflow_L3</text>
</g>
<!-- 18&#45;&gt;17 -->
<g id="edge38" class="edge"><title>18&#45;&gt;17</title>
<path fill="none" stroke="grey" stroke-width="2" d="M342,-1583.7C342,-1575.98 342,-1566.71 342,-1558.11"/>
<polygon fill="grey" stroke="grey" stroke-width="2" points="345.5,-1558.1 342,-1548.1 338.5,-1558.1 345.5,-1558.1"/>
</g>
<!-- 19 -->
<g id="node20" class="node"><title>19</title>
<path fill="none" stroke="#d88556" stroke-width="2" d="M332,-1836C332,-1836 276,-1836 276,-1836 270,-1836 264,-1830 264,-1824 264,-1824 264,-1812 264,-1812 264,-1806 270,-1800 276,-1800 276,-1800 332,-1800 332,-1800 338,-1800 344,-1806 344,-1812 344,-1812 344,-1824 344,-1824 344,-1830 338,-1836 332,-1836"/>
<text text-anchor="middle" x="304" y="-1815.5" font-family="sans" font-size="10.00">run_instate_L3</text>
</g>
<!-- 19&#45;&gt;0 -->
<g id="edge5" class="edge"><title>19&#45;&gt;0</title>
<path fill="none" stroke="grey" stroke-width="2" d="M296.31,-1799.91C285.206,-1773.62 266,-1721.45 266,-1675 266,-1675 266,-1675 266,-161 266,-120.86 258.449,-74.897 252.868,-46.4045"/>
<polygon fill="grey" stroke="grey" stroke-width="2" points="256.255,-45.4976 250.845,-36.3884 249.394,-46.8834 256.255,-45.4976"/>
</g>
<!-- 19&#45;&gt;18 -->
<g id="edge40" class="edge"><title>19&#45;&gt;18</title>
<path fill="none" stroke="grey" stroke-width="2" d="M307.045,-1799.85C313.633,-1762.75 329.249,-1674.81 337.187,-1630.1"/>
<polygon fill="grey" stroke="grey" stroke-width="2" points="340.638,-1630.69 338.94,-1620.23 333.746,-1629.47 340.638,-1630.69"/>
</g>
<!-- 47 -->
<g id="node48" class="node"><title>47</title>
<path fill="none" stroke="#61d856" stroke-width="2" d="M377.5,-1764C377.5,-1764 344.5,-1764 344.5,-1764 338.5,-1764 332.5,-1758 332.5,-1752 332.5,-1752 332.5,-1740 332.5,-1740 332.5,-1734 338.5,-1728 344.5,-1728 344.5,-1728 377.5,-1728 377.5,-1728 383.5,-1728 389.5,-1734 389.5,-1740 389.5,-1740 389.5,-1752 389.5,-1752 389.5,-1758 383.5,-1764 377.5,-1764"/>
<text text-anchor="middle" x="361" y="-1743.5" font-family="sans" font-size="10.00">config_L3</text>
</g>
<!-- 19&#45;&gt;47 -->
<g id="edge79" class="edge"><title>19&#45;&gt;47</title>
<path fill="none" stroke="grey" stroke-width="2" d="M318.09,-1799.7C324.923,-1791.3 333.257,-1781.07 340.756,-1771.86"/>
<polygon fill="grey" stroke="grey" stroke-width="2" points="343.472,-1774.07 347.072,-1764.1 338.044,-1769.65 343.472,-1774.07"/>
</g>
<!-- 20 -->
<g id="node21" class="node"><title>20</title>
<path fill="none" stroke="#d8d356" stroke-width="2" d="M429,-1908C429,-1908 325,-1908 325,-1908 319,-1908 313,-1902 313,-1896 313,-1896 313,-1884 313,-1884 313,-1878 319,-1872 325,-1872 325,-1872 429,-1872 429,-1872 435,-1872 441,-1878 441,-1884 441,-1884 441,-1896 441,-1896 441,-1902 435,-1908 429,-1908"/>
<text text-anchor="middle" x="377" y="-1887.5" font-family="sans" font-size="10.00">ST_instate_staticmaps_L3</text>
</g>
<!-- 20&#45;&gt;19 -->
<g id="edge43" class="edge"><title>20&#45;&gt;19</title>
<path fill="none" stroke="grey" stroke-width="2" d="M358.955,-1871.7C349.938,-1863.05 338.882,-1852.45 329.057,-1843.03"/>
<polygon fill="grey" stroke="grey" stroke-width="2" points="331.478,-1840.5 321.837,-1836.1 326.633,-1845.55 331.478,-1840.5"/>
</g>
<!-- 21 -->
<g id="node22" class="node"><title>21</title>
<path fill="none" stroke="#80d856" stroke-width="2" d="M360,-1980C360,-1980 268,-1980 268,-1980 262,-1980 256,-1974 256,-1968 256,-1968 256,-1956 256,-1956 256,-1950 262,-1944 268,-1944 268,-1944 360,-1944 360,-1944 366,-1944 372,-1950 372,-1956 372,-1956 372,-1968 372,-1968 372,-1974 366,-1980 360,-1980"/>
<text text-anchor="middle" x="314" y="-1959.5" font-family="sans" font-size="10.00">initial_instate_tomls_L3</text>
</g>
<!-- 21&#45;&gt;19 -->
<g id="edge42" class="edge"><title>21&#45;&gt;19</title>
<path fill="none" stroke="grey" stroke-width="2" d="M309.941,-1943.93C307.694,-1933.6 305.133,-1920.12 304,-1908 302.07,-1887.36 302.163,-1863.91 302.688,-1846.27"/>
<polygon fill="grey" stroke="grey" stroke-width="2" points="306.192,-1846.23 303.057,-1836.11 299.197,-1845.97 306.192,-1846.23"/>
</g>
<!-- 21&#45;&gt;20 -->
<g id="edge44" class="edge"><title>21&#45;&gt;20</title>
<path fill="none" stroke="grey" stroke-width="2" d="M329.573,-1943.7C337.202,-1935.22 346.523,-1924.86 354.876,-1915.58"/>
<polygon fill="grey" stroke="grey" stroke-width="2" points="357.518,-1917.88 361.606,-1908.1 352.315,-1913.2 357.518,-1917.88"/>
</g>
<!-- 22 -->
<g id="node23" class="node"><title>22</title>
<path fill="none" stroke="#56d87b" stroke-width="2" d="M295,-2052C295,-2052 237,-2052 237,-2052 231,-2052 225,-2046 225,-2040 225,-2040 225,-2028 225,-2028 225,-2022 231,-2016 237,-2016 237,-2016 295,-2016 295,-2016 301,-2016 307,-2022 307,-2028 307,-2028 307,-2040 307,-2040 307,-2046 301,-2052 295,-2052"/>
<text text-anchor="middle" x="266" y="-2031.5" font-family="sans" font-size="10.00">set_params_L2</text>
</g>
<!-- 22&#45;&gt;0 -->
<g id="edge7" class="edge"><title>22&#45;&gt;0</title>
<path fill="none" stroke="grey" stroke-width="2" d="M258.31,-2015.91C247.206,-1989.62 228,-1937.45 228,-1891 228,-1891 228,-1891 228,-161 228,-120.86 235.551,-74.897 241.132,-46.4045"/>
<polygon fill="grey" stroke="grey" stroke-width="2" points="244.606,-46.8834 243.155,-36.3884 237.745,-45.4976 244.606,-46.8834"/>
</g>
<!-- 22&#45;&gt;21 -->
<g id="edge45" class="edge"><title>22&#45;&gt;21</title>
<path fill="none" stroke="grey" stroke-width="2" d="M277.865,-2015.7C283.503,-2007.47 290.354,-1997.48 296.569,-1988.42"/>
<polygon fill="grey" stroke="grey" stroke-width="2" points="299.503,-1990.33 302.271,-1980.1 293.729,-1986.37 299.503,-1990.33"/>
</g>
<!-- 23 -->
<g id="node24" class="node"><title>23</title>
<path fill="none" stroke="#56b9d8" stroke-width="2" d="M288,-2124C288,-2124 244,-2124 244,-2124 238,-2124 232,-2118 232,-2112 232,-2112 232,-2100 232,-2100 232,-2094 238,-2088 244,-2088 244,-2088 288,-2088 288,-2088 294,-2088 300,-2094 300,-2100 300,-2100 300,-2112 300,-2112 300,-2118 294,-2124 288,-2124"/>
<text text-anchor="middle" x="266" y="-2103.5" font-family="sans" font-size="10.00">evaluate_L2</text>
</g>
<!-- 23&#45;&gt;22 -->
<g id="edge46" class="edge"><title>23&#45;&gt;22</title>
<path fill="none" stroke="grey" stroke-width="2" d="M266,-2087.7C266,-2079.98 266,-2070.71 266,-2062.11"/>
<polygon fill="grey" stroke="grey" stroke-width="2" points="269.5,-2062.1 266,-2052.1 262.5,-2062.1 269.5,-2062.1"/>
</g>
<!-- 24 -->
<g id="node25" class="node"><title>24</title>
<path fill="none" stroke="#56d89a" stroke-width="2" d="M282.5,-2196C282.5,-2196 249.5,-2196 249.5,-2196 243.5,-2196 237.5,-2190 237.5,-2184 237.5,-2184 237.5,-2172 237.5,-2172 237.5,-2166 243.5,-2160 249.5,-2160 249.5,-2160 282.5,-2160 282.5,-2160 288.5,-2160 294.5,-2166 294.5,-2172 294.5,-2172 294.5,-2184 294.5,-2184 294.5,-2190 288.5,-2196 282.5,-2196"/>
<text text-anchor="middle" x="266" y="-2175.5" font-family="sans" font-size="10.00">wflow_L2</text>
</g>
<!-- 24&#45;&gt;23 -->
<g id="edge47" class="edge"><title>24&#45;&gt;23</title>
<path fill="none" stroke="grey" stroke-width="2" d="M266,-2159.7C266,-2151.98 266,-2142.71 266,-2134.11"/>
<polygon fill="grey" stroke="grey" stroke-width="2" points="269.5,-2134.1 266,-2124.1 262.5,-2134.1 269.5,-2134.1"/>
</g>
<!-- 25 -->
<g id="node26" class="node"><title>25</title>
<path fill="none" stroke="#d89c56" stroke-width="2" d="M256,-2412C256,-2412 200,-2412 200,-2412 194,-2412 188,-2406 188,-2400 188,-2400 188,-2388 188,-2388 188,-2382 194,-2376 200,-2376 200,-2376 256,-2376 256,-2376 262,-2376 268,-2382 268,-2388 268,-2388 268,-2400 268,-2400 268,-2406 262,-2412 256,-2412"/>
<text text-anchor="middle" x="228" y="-2391.5" font-family="sans" font-size="10.00">run_instate_L2</text>
</g>
<!-- 25&#45;&gt;0 -->
<g id="edge8" class="edge"><title>25&#45;&gt;0</title>
<path fill="none" stroke="grey" stroke-width="2" d="M220.31,-2375.91C209.206,-2349.62 190,-2297.45 190,-2251 190,-2251 190,-2251 190,-161 190,-117.801 213,-72.1859 229.78,-44.6553"/>
<polygon fill="grey" stroke="grey" stroke-width="2" points="232.835,-46.3716 235.19,-36.0417 226.907,-42.6485 232.835,-46.3716"/>
</g>
<!-- 25&#45;&gt;24 -->
<g id="edge50" class="edge"><title>25&#45;&gt;24</title>
<path fill="none" stroke="grey" stroke-width="2" d="M231.045,-2375.85C237.633,-2338.75 253.249,-2250.81 261.187,-2206.1"/>
<polygon fill="grey" stroke="grey" stroke-width="2" points="264.638,-2206.69 262.94,-2196.23 257.746,-2205.47 264.638,-2206.69"/>
</g>
<!-- 45 -->
<g id="node46" class="node"><title>45</title>
<path fill="none" stroke="#b6d856" stroke-width="2" d="M301.5,-2340C301.5,-2340 268.5,-2340 268.5,-2340 262.5,-2340 256.5,-2334 256.5,-2328 256.5,-2328 256.5,-2316 256.5,-2316 256.5,-2310 262.5,-2304 268.5,-2304 268.5,-2304 301.5,-2304 301.5,-2304 307.5,-2304 313.5,-2310 313.5,-2316 313.5,-2316 313.5,-2328 313.5,-2328 313.5,-2334 307.5,-2340 301.5,-2340"/>
<text text-anchor="middle" x="285" y="-2319.5" font-family="sans" font-size="10.00">config_L2</text>
</g>
<!-- 25&#45;&gt;45 -->
<g id="edge77" class="edge"><title>25&#45;&gt;45</title>
<path fill="none" stroke="grey" stroke-width="2" d="M242.09,-2375.7C248.923,-2367.3 257.257,-2357.07 264.756,-2347.86"/>
<polygon fill="grey" stroke="grey" stroke-width="2" points="267.472,-2350.07 271.072,-2340.1 262.044,-2345.65 267.472,-2350.07"/>
</g>
<!-- 26 -->
<g id="node27" class="node"><title>26</title>
<path fill="none" stroke="#d88d56" stroke-width="2" d="M353,-2484C353,-2484 249,-2484 249,-2484 243,-2484 237,-2478 237,-2472 237,-2472 237,-2460 237,-2460 237,-2454 243,-2448 249,-2448 249,-2448 353,-2448 353,-2448 359,-2448 365,-2454 365,-2460 365,-2460 365,-2472 365,-2472 365,-2478 359,-2484 353,-2484"/>
<text text-anchor="middle" x="301" y="-2463.5" font-family="sans" font-size="10.00">ST_instate_staticmaps_L2</text>
</g>
<!-- 26&#45;&gt;25 -->
<g id="edge51" class="edge"><title>26&#45;&gt;25</title>
<path fill="none" stroke="grey" stroke-width="2" d="M282.955,-2447.7C273.938,-2439.05 262.882,-2428.45 253.057,-2419.03"/>
<polygon fill="grey" stroke="grey" stroke-width="2" points="255.478,-2416.5 245.837,-2412.1 250.633,-2421.55 255.478,-2416.5"/>
</g>
<!-- 27 -->
<g id="node28" class="node"><title>27</title>
<path fill="none" stroke="#d85e56" stroke-width="2" d="M284,-2556C284,-2556 192,-2556 192,-2556 186,-2556 180,-2550 180,-2544 180,-2544 180,-2532 180,-2532 180,-2526 186,-2520 192,-2520 192,-2520 284,-2520 284,-2520 290,-2520 296,-2526 296,-2532 296,-2532 296,-2544 296,-2544 296,-2550 290,-2556 284,-2556"/>
<text text-anchor="middle" x="238" y="-2535.5" font-family="sans" font-size="10.00">initial_instate_tomls_L2</text>
</g>
<!-- 27&#45;&gt;25 -->
<g id="edge52" class="edge"><title>27&#45;&gt;25</title>
<path fill="none" stroke="grey" stroke-width="2" d="M233.941,-2519.93C231.694,-2509.6 229.133,-2496.12 228,-2484 226.07,-2463.36 226.163,-2439.91 226.688,-2422.27"/>
<polygon fill="grey" stroke="grey" stroke-width="2" points="230.192,-2422.23 227.057,-2412.11 223.197,-2421.97 230.192,-2422.23"/>
</g>
<!-- 27&#45;&gt;26 -->
<g id="edge53" class="edge"><title>27&#45;&gt;26</title>
<path fill="none" stroke="grey" stroke-width="2" d="M253.573,-2519.7C261.202,-2511.22 270.523,-2500.86 278.876,-2491.58"/>
<polygon fill="grey" stroke="grey" stroke-width="2" points="281.518,-2493.88 285.606,-2484.1 276.315,-2489.2 281.518,-2493.88"/>
</g>
<!-- 28 -->
<g id="node29" class="node"><title>28</title>
<path fill="none" stroke="#567bd8" stroke-width="2" d="M219,-2628C219,-2628 161,-2628 161,-2628 155,-2628 149,-2622 149,-2616 149,-2616 149,-2604 149,-2604 149,-2598 155,-2592 161,-2592 161,-2592 219,-2592 219,-2592 225,-2592 231,-2598 231,-2604 231,-2604 231,-2616 231,-2616 231,-2622 225,-2628 219,-2628"/>
<text text-anchor="middle" x="190" y="-2607.5" font-family="sans" font-size="10.00">set_params_L1</text>
</g>
<!-- 28&#45;&gt;0 -->
<g id="edge12" class="edge"><title>28&#45;&gt;0</title>
<path fill="none" stroke="grey" stroke-width="2" d="M182.31,-2591.91C171.206,-2565.62 152,-2513.45 152,-2467 152,-2467 152,-2467 152,-161 152,-113.012 189.944,-68.9633 217.871,-43.0419"/>
<polygon fill="grey" stroke="grey" stroke-width="2" points="220.354,-45.516 225.443,-36.2232 215.67,-40.3144 220.354,-45.516"/>
</g>
<!-- 28&#45;&gt;27 -->
<g id="edge54" class="edge"><title>28&#45;&gt;27</title>
<path fill="none" stroke="grey" stroke-width="2" d="M201.865,-2591.7C207.503,-2583.47 214.354,-2573.48 220.569,-2564.42"/>
<polygon fill="grey" stroke="grey" stroke-width="2" points="223.503,-2566.33 226.271,-2556.1 217.729,-2562.37 223.503,-2566.33"/>
</g>
<!-- 29 -->
<g id="node30" class="node"><title>29</title>
<path fill="none" stroke="#56d86b" stroke-width="2" d="M212,-2700C212,-2700 168,-2700 168,-2700 162,-2700 156,-2694 156,-2688 156,-2688 156,-2676 156,-2676 156,-2670 162,-2664 168,-2664 168,-2664 212,-2664 212,-2664 218,-2664 224,-2670 224,-2676 224,-2676 224,-2688 224,-2688 224,-2694 218,-2700 212,-2700"/>
<text text-anchor="middle" x="190" y="-2679.5" font-family="sans" font-size="10.00">evaluate_L1</text>
</g>
<!-- 29&#45;&gt;28 -->
<g id="edge55" class="edge"><title>29&#45;&gt;28</title>
<path fill="none" stroke="grey" stroke-width="2" d="M190,-2663.7C190,-2655.98 190,-2646.71 190,-2638.11"/>
<polygon fill="grey" stroke="grey" stroke-width="2" points="193.5,-2638.1 190,-2628.1 186.5,-2638.1 193.5,-2638.1"/>
</g>
<!-- 30 -->
<g id="node31" class="node"><title>30</title>
<path fill="none" stroke="#56d8c9" stroke-width="2" d="M206.5,-2772C206.5,-2772 173.5,-2772 173.5,-2772 167.5,-2772 161.5,-2766 161.5,-2760 161.5,-2760 161.5,-2748 161.5,-2748 161.5,-2742 167.5,-2736 173.5,-2736 173.5,-2736 206.5,-2736 206.5,-2736 212.5,-2736 218.5,-2742 218.5,-2748 218.5,-2748 218.5,-2760 218.5,-2760 218.5,-2766 212.5,-2772 206.5,-2772"/>
<text text-anchor="middle" x="190" y="-2751.5" font-family="sans" font-size="10.00">wflow_L1</text>
</g>
<!-- 30&#45;&gt;29 -->
<g id="edge56" class="edge"><title>30&#45;&gt;29</title>
<path fill="none" stroke="grey" stroke-width="2" d="M190,-2735.7C190,-2727.98 190,-2718.71 190,-2710.11"/>
<polygon fill="grey" stroke="grey" stroke-width="2" points="193.5,-2710.1 190,-2700.1 186.5,-2710.1 193.5,-2710.1"/>
</g>
<!-- 31 -->
<g id="node32" class="node"><title>31</title>
<path fill="none" stroke="#56d873" stroke-width="2" d="M180,-2988C180,-2988 124,-2988 124,-2988 118,-2988 112,-2982 112,-2976 112,-2976 112,-2964 112,-2964 112,-2958 118,-2952 124,-2952 124,-2952 180,-2952 180,-2952 186,-2952 192,-2958 192,-2964 192,-2964 192,-2976 192,-2976 192,-2982 186,-2988 180,-2988"/>
<text text-anchor="middle" x="152" y="-2967.5" font-family="sans" font-size="10.00">run_instate_L1</text>
</g>
<!-- 31&#45;&gt;0 -->
<g id="edge6" class="edge"><title>31&#45;&gt;0</title>
<path fill="none" stroke="grey" stroke-width="2" d="M144.31,-2951.91C133.206,-2925.62 114,-2873.45 114,-2827 114,-2827 114,-2827 114,-161 114,-104.244 171.298,-60.8175 210.678,-37.6739"/>
<polygon fill="grey" stroke="grey" stroke-width="2" points="212.805,-40.4906 219.765,-32.5024 209.342,-34.4069 212.805,-40.4906"/>
</g>
<!-- 31&#45;&gt;30 -->
<g id="edge59" class="edge"><title>31&#45;&gt;30</title>
<path fill="none" stroke="grey" stroke-width="2" d="M155.045,-2951.85C161.633,-2914.75 177.249,-2826.81 185.187,-2782.1"/>
<polygon fill="grey" stroke="grey" stroke-width="2" points="188.638,-2782.69 186.94,-2772.23 181.746,-2781.47 188.638,-2782.69"/>
</g>
<!-- 43 -->
<g id="node44" class="node"><title>43</title>
<path fill="none" stroke="#c6d856" stroke-width="2" d="M225.5,-2916C225.5,-2916 192.5,-2916 192.5,-2916 186.5,-2916 180.5,-2910 180.5,-2904 180.5,-2904 180.5,-2892 180.5,-2892 180.5,-2886 186.5,-2880 192.5,-2880 192.5,-2880 225.5,-2880 225.5,-2880 231.5,-2880 237.5,-2886 237.5,-2892 237.5,-2892 237.5,-2904 237.5,-2904 237.5,-2910 231.5,-2916 225.5,-2916"/>
<text text-anchor="middle" x="209" y="-2895.5" font-family="sans" font-size="10.00">config_L1</text>
</g>
<!-- 31&#45;&gt;43 -->
<g id="edge75" class="edge"><title>31&#45;&gt;43</title>
<path fill="none" stroke="grey" stroke-width="2" d="M166.09,-2951.7C172.923,-2943.3 181.257,-2933.07 188.756,-2923.86"/>
<polygon fill="grey" stroke="grey" stroke-width="2" points="191.472,-2926.07 195.072,-2916.1 186.044,-2921.65 191.472,-2926.07"/>
</g>
<!-- 32 -->
<g id="node33" class="node"><title>32</title>
<path fill="none" stroke="#56c1d8" stroke-width="2" d="M277,-3060C277,-3060 173,-3060 173,-3060 167,-3060 161,-3054 161,-3048 161,-3048 161,-3036 161,-3036 161,-3030 167,-3024 173,-3024 173,-3024 277,-3024 277,-3024 283,-3024 289,-3030 289,-3036 289,-3036 289,-3048 289,-3048 289,-3054 283,-3060 277,-3060"/>
<text text-anchor="middle" x="225" y="-3039.5" font-family="sans" font-size="10.00">ST_instate_staticmaps_L1</text>
</g>
<!-- 32&#45;&gt;31 -->
<g id="edge61" class="edge"><title>32&#45;&gt;31</title>
<path fill="none" stroke="grey" stroke-width="2" d="M206.955,-3023.7C197.938,-3015.05 186.882,-3004.45 177.057,-2995.03"/>
<polygon fill="grey" stroke="grey" stroke-width="2" points="179.478,-2992.5 169.837,-2988.1 174.633,-2997.55 179.478,-2992.5"/>
</g>
<!-- 33 -->
<g id="node34" class="node"><title>33</title>
<path fill="none" stroke="#566bd8" stroke-width="2" d="M208,-3132C208,-3132 116,-3132 116,-3132 110,-3132 104,-3126 104,-3120 104,-3120 104,-3108 104,-3108 104,-3102 110,-3096 116,-3096 116,-3096 208,-3096 208,-3096 214,-3096 220,-3102 220,-3108 220,-3108 220,-3120 220,-3120 220,-3126 214,-3132 208,-3132"/>
<text text-anchor="middle" x="162" y="-3111.5" font-family="sans" font-size="10.00">initial_instate_tomls_L1</text>
</g>
<!-- 33&#45;&gt;31 -->
<g id="edge60" class="edge"><title>33&#45;&gt;31</title>
<path fill="none" stroke="grey" stroke-width="2" d="M157.941,-3095.93C155.694,-3085.6 153.133,-3072.12 152,-3060 150.07,-3039.36 150.163,-3015.91 150.688,-2998.27"/>
<polygon fill="grey" stroke="grey" stroke-width="2" points="154.192,-2998.23 151.057,-2988.11 147.197,-2997.97 154.192,-2998.23"/>
</g>
<!-- 33&#45;&gt;32 -->
<g id="edge62" class="edge"><title>33&#45;&gt;32</title>
<path fill="none" stroke="grey" stroke-width="2" d="M177.573,-3095.7C185.202,-3087.22 194.523,-3076.86 202.876,-3067.58"/>
<polygon fill="grey" stroke="grey" stroke-width="2" points="205.518,-3069.88 209.606,-3060.1 200.315,-3065.2 205.518,-3069.88"/>
</g>
<!-- 34 -->
<g id="node35" class="node"><title>34</title>
<path fill="none" stroke="#568ad8" stroke-width="2" d="M143,-3204C143,-3204 85,-3204 85,-3204 79,-3204 73,-3198 73,-3192 73,-3192 73,-3180 73,-3180 73,-3174 79,-3168 85,-3168 85,-3168 143,-3168 143,-3168 149,-3168 155,-3174 155,-3180 155,-3180 155,-3192 155,-3192 155,-3198 149,-3204 143,-3204"/>
<text text-anchor="middle" x="114" y="-3183.5" font-family="sans" font-size="10.00">set_params_L0</text>
</g>
<!-- 34&#45;&gt;0 -->
<g id="edge14" class="edge"><title>34&#45;&gt;0</title>
<path fill="none" stroke="grey" stroke-width="2" d="M106.31,-3167.91C95.2064,-3141.62 76,-3089.45 76,-3043 76,-3043 76,-3043 76,-161 76,-114.733 95.381,-102.695 130,-72 153.024,-51.586 185.22,-37.7805 210.012,-29.3902"/>
<polygon fill="grey" stroke="grey" stroke-width="2" points="211.355,-32.6342 219.794,-26.2275 209.202,-25.9737 211.355,-32.6342"/>
</g>
<!-- 34&#45;&gt;33 -->
<g id="edge63" class="edge"><title>34&#45;&gt;33</title>
<path fill="none" stroke="grey" stroke-width="2" d="M125.865,-3167.7C131.503,-3159.47 138.354,-3149.48 144.569,-3140.42"/>
<polygon fill="grey" stroke="grey" stroke-width="2" points="147.503,-3142.33 150.271,-3132.1 141.729,-3138.37 147.503,-3142.33"/>
</g>
<!-- 35 -->
<g id="node36" class="node"><title>35</title>
<path fill="none" stroke="#56d8a2" stroke-width="2" d="M136,-3276C136,-3276 92,-3276 92,-3276 86,-3276 80,-3270 80,-3264 80,-3264 80,-3252 80,-3252 80,-3246 86,-3240 92,-3240 92,-3240 136,-3240 136,-3240 142,-3240 148,-3246 148,-3252 148,-3252 148,-3264 148,-3264 148,-3270 142,-3276 136,-3276"/>
<text text-anchor="middle" x="114" y="-3255.5" font-family="sans" font-size="10.00">evaluate_L0</text>
</g>
<!-- 35&#45;&gt;34 -->
<g id="edge64" class="edge"><title>35&#45;&gt;34</title>
<path fill="none" stroke="grey" stroke-width="2" d="M114,-3239.7C114,-3231.98 114,-3222.71 114,-3214.11"/>
<polygon fill="grey" stroke="grey" stroke-width="2" points="117.5,-3214.1 114,-3204.1 110.5,-3214.1 117.5,-3214.1"/>
</g>
<!-- 36 -->
<g id="node37" class="node"><title>36</title>
<path fill="none" stroke="#59d856" stroke-width="2" d="M130.5,-3348C130.5,-3348 97.5,-3348 97.5,-3348 91.5,-3348 85.5,-3342 85.5,-3336 85.5,-3336 85.5,-3324 85.5,-3324 85.5,-3318 91.5,-3312 97.5,-3312 97.5,-3312 130.5,-3312 130.5,-3312 136.5,-3312 142.5,-3318 142.5,-3324 142.5,-3324 142.5,-3336 142.5,-3336 142.5,-3342 136.5,-3348 130.5,-3348"/>
<text text-anchor="middle" x="114" y="-3327.5" font-family="sans" font-size="10.00">wflow_L0</text>
</g>
<!-- 36&#45;&gt;35 -->
<g id="edge65" class="edge"><title>36&#45;&gt;35</title>
<path fill="none" stroke="grey" stroke-width="2" d="M114,-3311.7C114,-3303.98 114,-3294.71 114,-3286.11"/>
<polygon fill="grey" stroke="grey" stroke-width="2" points="117.5,-3286.1 114,-3276.1 110.5,-3286.1 117.5,-3286.1"/>
</g>
<!-- 37 -->
<g id="node38" class="node"><title>37</title>
<path fill="none" stroke="#d8ac56" stroke-width="2" d="M104,-3564C104,-3564 48,-3564 48,-3564 42,-3564 36,-3558 36,-3552 36,-3552 36,-3540 36,-3540 36,-3534 42,-3528 48,-3528 48,-3528 104,-3528 104,-3528 110,-3528 116,-3534 116,-3540 116,-3540 116,-3552 116,-3552 116,-3558 110,-3564 104,-3564"/>
<text text-anchor="middle" x="76" y="-3543.5" font-family="sans" font-size="10.00">run_instate_L0</text>
</g>
<!-- 37&#45;&gt;0 -->
<g id="edge9" class="edge"><title>37&#45;&gt;0</title>
<path fill="none" stroke="grey" stroke-width="2" d="M68.3101,-3527.91C57.2064,-3501.62 38,-3449.45 38,-3403 38,-3403 38,-3403 38,-161 38,-115.41 53.7535,-100.915 89,-72 123.968,-43.3127 175.148,-29.8978 209.7,-23.8004"/>
<polygon fill="grey" stroke="grey" stroke-width="2" points="210.552,-27.2076 219.853,-22.1343 209.418,-20.3 210.552,-27.2076"/>
</g>
<!-- 37&#45;&gt;36 -->
<g id="edge67" class="edge"><title>37&#45;&gt;36</title>
<path fill="none" stroke="grey" stroke-width="2" d="M79.0455,-3527.85C85.6326,-3490.75 101.249,-3402.81 109.187,-3358.1"/>
<polygon fill="grey" stroke="grey" stroke-width="2" points="112.638,-3358.69 110.94,-3348.23 105.746,-3357.47 112.638,-3358.69"/>
</g>
<!-- 41 -->
<g id="node42" class="node"><title>41</title>
<path fill="none" stroke="#56d8b9" stroke-width="2" d="M149.5,-3492C149.5,-3492 116.5,-3492 116.5,-3492 110.5,-3492 104.5,-3486 104.5,-3480 104.5,-3480 104.5,-3468 104.5,-3468 104.5,-3462 110.5,-3456 116.5,-3456 116.5,-3456 149.5,-3456 149.5,-3456 155.5,-3456 161.5,-3462 161.5,-3468 161.5,-3468 161.5,-3480 161.5,-3480 161.5,-3486 155.5,-3492 149.5,-3492"/>
<text text-anchor="middle" x="133" y="-3471.5" font-family="sans" font-size="10.00">config_L0</text>
</g>
<!-- 37&#45;&gt;41 -->
<g id="edge73" class="edge"><title>37&#45;&gt;41</title>
<path fill="none" stroke="grey" stroke-width="2" d="M90.0899,-3527.7C96.9234,-3519.3 105.257,-3509.07 112.756,-3499.86"/>
<polygon fill="grey" stroke="grey" stroke-width="2" points="115.472,-3502.07 119.072,-3492.1 110.044,-3497.65 115.472,-3502.07"/>
</g>
<!-- 38 -->
<g id="node39" class="node"><title>38</title>
<path fill="none" stroke="#bed856" stroke-width="2" d="M201,-3636C201,-3636 97,-3636 97,-3636 91,-3636 85,-3630 85,-3624 85,-3624 85,-3612 85,-3612 85,-3606 91,-3600 97,-3600 97,-3600 201,-3600 201,-3600 207,-3600 213,-3606 213,-3612 213,-3612 213,-3624 213,-3624 213,-3630 207,-3636 201,-3636"/>
<text text-anchor="middle" x="149" y="-3615.5" font-family="sans" font-size="10.00">ST_instate_staticmaps_L0</text>
</g>
<!-- 38&#45;&gt;37 -->
<g id="edge70" class="edge"><title>38&#45;&gt;37</title>
<path fill="none" stroke="grey" stroke-width="2" d="M130.955,-3599.7C121.938,-3591.05 110.882,-3580.45 101.057,-3571.03"/>
<polygon fill="grey" stroke="grey" stroke-width="2" points="103.478,-3568.5 93.8374,-3564.1 98.6328,-3573.55 103.478,-3568.5"/>
</g>
<!-- 39 -->
<g id="node40" class="node"><title>39</title>
<path fill="none" stroke="#5673d8" stroke-width="2" d="M132,-3708C132,-3708 40,-3708 40,-3708 34,-3708 28,-3702 28,-3696 28,-3696 28,-3684 28,-3684 28,-3678 34,-3672 40,-3672 40,-3672 132,-3672 132,-3672 138,-3672 144,-3678 144,-3684 144,-3684 144,-3696 144,-3696 144,-3702 138,-3708 132,-3708"/>
<text text-anchor="middle" x="86" y="-3687.5" font-family="sans" font-size="10.00">initial_instate_tomls_L0</text>
</g>
<!-- 39&#45;&gt;37 -->
<g id="edge69" class="edge"><title>39&#45;&gt;37</title>
<path fill="none" stroke="grey" stroke-width="2" d="M81.9409,-3671.93C79.6944,-3661.6 77.1334,-3648.12 76,-3636 74.07,-3615.36 74.1628,-3591.91 74.6884,-3574.27"/>
<polygon fill="grey" stroke="grey" stroke-width="2" points="78.192,-3574.23 75.0573,-3564.11 71.1966,-3573.97 78.192,-3574.23"/>
</g>
<!-- 39&#45;&gt;38 -->
<g id="edge71" class="edge"><title>39&#45;&gt;38</title>
<path fill="none" stroke="grey" stroke-width="2" d="M101.573,-3671.7C109.202,-3663.22 118.523,-3652.86 126.876,-3643.58"/>
<polygon fill="grey" stroke="grey" stroke-width="2" points="129.518,-3645.88 133.606,-3636.1 124.315,-3641.2 129.518,-3645.88"/>
</g>
<!-- 40 -->
<g id="node41" class="node"><title>40</title>
<path fill="none" stroke="#d85656" stroke-width="2" d="M59,-3780C59,-3780 27,-3780 27,-3780 21,-3780 15,-3774 15,-3768 15,-3768 15,-3756 15,-3756 15,-3750 21,-3744 27,-3744 27,-3744 59,-3744 59,-3744 65,-3744 71,-3750 71,-3756 71,-3756 71,-3768 71,-3768 71,-3774 65,-3780 59,-3780"/>
<text text-anchor="middle" x="43" y="-3759.5" font-family="sans" font-size="10.00">init_done</text>
</g>
<!-- 40&#45;&gt;0 -->
<g id="edge1" class="edge"><title>40&#45;&gt;0</title>
<path fill="none" stroke="grey" stroke-width="2" d="M34.0904,-3743.58C21.4954,-3717.3 0,-3665.62 0,-3619 0,-3619 0,-3619 0,-161 0,-115.846 13.4543,-99.8463 49,-72 96.0998,-35.1022 166.741,-23.8098 209.683,-20.4048"/>
<polygon fill="grey" stroke="grey" stroke-width="2" points="209.976,-23.893 219.712,-19.7135 209.495,-16.9096 209.976,-23.893"/>
</g>
<!-- 40&#45;&gt;39 -->
<g id="edge72" class="edge"><title>40&#45;&gt;39</title>
<path fill="none" stroke="grey" stroke-width="2" d="M53.6292,-3743.7C58.6281,-3735.56 64.691,-3725.69 70.2121,-3716.7"/>
<polygon fill="grey" stroke="grey" stroke-width="2" points="73.2411,-3718.46 75.4931,-3708.1 67.2766,-3714.79 73.2411,-3718.46"/>
</g>
<!-- 41&#45;&gt;36 -->
<g id="edge68" class="edge"><title>41&#45;&gt;36</title>
<path fill="none" stroke="grey" stroke-width="2" d="M130.708,-3455.87C127.47,-3431.67 121.521,-3387.21 117.665,-3358.39"/>
<polygon fill="grey" stroke="grey" stroke-width="2" points="121.095,-3357.64 116.3,-3348.19 114.157,-3358.57 121.095,-3357.64"/>
</g>
<!-- 42 -->
<g id="node43" class="node"><title>42</title>
<path fill="none" stroke="#a7d856" stroke-width="2" d="M226,-3420C226,-3420 154,-3420 154,-3420 148,-3420 142,-3414 142,-3408 142,-3408 142,-3396 142,-3396 142,-3390 148,-3384 154,-3384 154,-3384 226,-3384 226,-3384 232,-3384 238,-3390 238,-3396 238,-3396 238,-3408 238,-3408 238,-3414 232,-3420 226,-3420"/>
<text text-anchor="middle" x="190" y="-3399.5" font-family="sans" font-size="10.00">create_params_L0</text>
</g>
<!-- 41&#45;&gt;42 -->
<g id="edge74" class="edge"><title>41&#45;&gt;42</title>
<path fill="none" stroke="grey" stroke-width="2" d="M147.09,-3455.7C153.923,-3447.3 162.257,-3437.07 169.756,-3427.86"/>
<polygon fill="grey" stroke="grey" stroke-width="2" points="172.472,-3430.07 176.072,-3420.1 167.044,-3425.65 172.472,-3430.07"/>
</g>
<!-- 42&#45;&gt;36 -->
<g id="edge66" class="edge"><title>42&#45;&gt;36</title>
<path fill="none" stroke="grey" stroke-width="2" d="M171.213,-3383.7C161.826,-3375.05 150.316,-3364.45 140.087,-3355.03"/>
<polygon fill="grey" stroke="grey" stroke-width="2" points="142.297,-3352.3 132.57,-3348.1 137.555,-3357.45 142.297,-3352.3"/>
</g>
<!-- 43&#45;&gt;30 -->
<g id="edge58" class="edge"><title>43&#45;&gt;30</title>
<path fill="none" stroke="grey" stroke-width="2" d="M206.708,-2879.87C203.47,-2855.67 197.521,-2811.21 193.665,-2782.39"/>
<polygon fill="grey" stroke="grey" stroke-width="2" points="197.095,-2781.64 192.3,-2772.19 190.157,-2782.57 197.095,-2781.64"/>
</g>
<!-- 44 -->
<g id="node45" class="node"><title>44</title>
<path fill="none" stroke="#56d8a9" stroke-width="2" d="M302,-2844C302,-2844 230,-2844 230,-2844 224,-2844 218,-2838 218,-2832 218,-2832 218,-2820 218,-2820 218,-2814 224,-2808 230,-2808 230,-2808 302,-2808 302,-2808 308,-2808 314,-2814 314,-2820 314,-2820 314,-2832 314,-2832 314,-2838 308,-2844 302,-2844"/>
<text text-anchor="middle" x="266" y="-2823.5" font-family="sans" font-size="10.00">create_params_L1</text>
</g>
<!-- 43&#45;&gt;44 -->
<g id="edge76" class="edge"><title>43&#45;&gt;44</title>
<path fill="none" stroke="grey" stroke-width="2" d="M223.09,-2879.7C229.923,-2871.3 238.257,-2861.07 245.756,-2851.86"/>
<polygon fill="grey" stroke="grey" stroke-width="2" points="248.472,-2854.07 252.072,-2844.1 243.044,-2849.65 248.472,-2854.07"/>
</g>
<!-- 44&#45;&gt;30 -->
<g id="edge57" class="edge"><title>44&#45;&gt;30</title>
<path fill="none" stroke="grey" stroke-width="2" d="M247.213,-2807.7C237.826,-2799.05 226.316,-2788.45 216.087,-2779.03"/>
<polygon fill="grey" stroke="grey" stroke-width="2" points="218.297,-2776.3 208.57,-2772.1 213.555,-2781.45 218.297,-2776.3"/>
</g>
<!-- 45&#45;&gt;24 -->
<g id="edge49" class="edge"><title>45&#45;&gt;24</title>
<path fill="none" stroke="grey" stroke-width="2" d="M282.708,-2303.87C279.47,-2279.67 273.521,-2235.21 269.665,-2206.39"/>
<polygon fill="grey" stroke="grey" stroke-width="2" points="273.095,-2205.64 268.3,-2196.19 266.157,-2206.57 273.095,-2205.64"/>
</g>
<!-- 46 -->
<g id="node47" class="node"><title>46</title>
<path fill="none" stroke="#569ad8" stroke-width="2" d="M378,-2268C378,-2268 306,-2268 306,-2268 300,-2268 294,-2262 294,-2256 294,-2256 294,-2244 294,-2244 294,-2238 300,-2232 306,-2232 306,-2232 378,-2232 378,-2232 384,-2232 390,-2238 390,-2244 390,-2244 390,-2256 390,-2256 390,-2262 384,-2268 378,-2268"/>
<text text-anchor="middle" x="342" y="-2247.5" font-family="sans" font-size="10.00">create_params_L2</text>
</g>
<!-- 45&#45;&gt;46 -->
<g id="edge78" class="edge"><title>45&#45;&gt;46</title>
<path fill="none" stroke="grey" stroke-width="2" d="M299.09,-2303.7C305.923,-2295.3 314.257,-2285.07 321.756,-2275.86"/>
<polygon fill="grey" stroke="grey" stroke-width="2" points="324.472,-2278.07 328.072,-2268.1 319.044,-2273.65 324.472,-2278.07"/>
</g>
<!-- 46&#45;&gt;24 -->
<g id="edge48" class="edge"><title>46&#45;&gt;24</title>
<path fill="none" stroke="grey" stroke-width="2" d="M323.213,-2231.7C313.826,-2223.05 302.316,-2212.45 292.087,-2203.03"/>
<polygon fill="grey" stroke="grey" stroke-width="2" points="294.297,-2200.3 284.57,-2196.1 289.555,-2205.45 294.297,-2200.3"/>
</g>
<!-- 47&#45;&gt;18 -->
<g id="edge39" class="edge"><title>47&#45;&gt;18</title>
<path fill="none" stroke="grey" stroke-width="2" d="M358.708,-1727.87C355.47,-1703.67 349.521,-1659.21 345.665,-1630.39"/>
<polygon fill="grey" stroke="grey" stroke-width="2" points="349.095,-1629.64 344.3,-1620.19 342.157,-1630.57 349.095,-1629.64"/>
</g>
<!-- 48 -->
<g id="node49" class="node"><title>48</title>
<path fill="none" stroke="#56d88a" stroke-width="2" d="M454,-1692C454,-1692 382,-1692 382,-1692 376,-1692 370,-1686 370,-1680 370,-1680 370,-1668 370,-1668 370,-1662 376,-1656 382,-1656 382,-1656 454,-1656 454,-1656 460,-1656 466,-1662 466,-1668 466,-1668 466,-1680 466,-1680 466,-1686 460,-1692 454,-1692"/>
<text text-anchor="middle" x="418" y="-1671.5" font-family="sans" font-size="10.00">create_params_L3</text>
</g>
<!-- 47&#45;&gt;48 -->
<g id="edge80" class="edge"><title>47&#45;&gt;48</title>
<path fill="none" stroke="grey" stroke-width="2" d="M375.09,-1727.7C381.923,-1719.3 390.257,-1709.07 397.756,-1699.86"/>
<polygon fill="grey" stroke="grey" stroke-width="2" points="400.472,-1702.07 404.072,-1692.1 395.044,-1697.65 400.472,-1702.07"/>
</g>
<!-- 48&#45;&gt;18 -->
<g id="edge41" class="edge"><title>48&#45;&gt;18</title>
<path fill="none" stroke="grey" stroke-width="2" d="M399.213,-1655.7C389.826,-1647.05 378.316,-1636.45 368.087,-1627.03"/>
<polygon fill="grey" stroke="grey" stroke-width="2" points="370.297,-1624.3 360.57,-1620.1 365.555,-1629.45 370.297,-1624.3"/>
</g>
<!-- 49&#45;&gt;12 -->
<g id="edge32" class="edge"><title>49&#45;&gt;12</title>
<path fill="none" stroke="grey" stroke-width="2" d="M434.708,-1151.87C431.47,-1127.67 425.521,-1083.21 421.665,-1054.39"/>
<polygon fill="grey" stroke="grey" stroke-width="2" points="425.095,-1053.64 420.3,-1044.19 418.157,-1054.57 425.095,-1053.64"/>
</g>
<!-- 50 -->
<g id="node51" class="node"><title>50</title>
<path fill="none" stroke="#56d8c1" stroke-width="2" d="M530,-1116C530,-1116 458,-1116 458,-1116 452,-1116 446,-1110 446,-1104 446,-1104 446,-1092 446,-1092 446,-1086 452,-1080 458,-1080 458,-1080 530,-1080 530,-1080 536,-1080 542,-1086 542,-1092 542,-1092 542,-1104 542,-1104 542,-1110 536,-1116 530,-1116"/>
<text text-anchor="middle" x="494" y="-1095.5" font-family="sans" font-size="10.00">create_params_L4</text>
</g>
<!-- 49&#45;&gt;50 -->
<g id="edge82" class="edge"><title>49&#45;&gt;50</title>
<path fill="none" stroke="grey" stroke-width="2" d="M451.09,-1151.7C457.923,-1143.3 466.257,-1133.07 473.756,-1123.86"/>
<polygon fill="grey" stroke="grey" stroke-width="2" points="476.472,-1126.07 480.072,-1116.1 471.044,-1121.65 476.472,-1126.07"/>
</g>
<!-- 50&#45;&gt;12 -->
<g id="edge30" class="edge"><title>50&#45;&gt;12</title>
<path fill="none" stroke="grey" stroke-width="2" d="M475.213,-1079.7C465.826,-1071.05 454.316,-1060.45 444.087,-1051.03"/>
<polygon fill="grey" stroke="grey" stroke-width="2" points="446.297,-1048.3 436.57,-1044.1 441.555,-1053.45 446.297,-1048.3"/>
</g>
<!-- 51&#45;&gt;6 -->
<g id="edge21" class="edge"><title>51&#45;&gt;6</title>
<path fill="none" stroke="grey" stroke-width="2" d="M510.708,-575.871C507.47,-551.67 501.521,-507.211 497.665,-478.393"/>
<polygon fill="grey" stroke="grey" stroke-width="2" points="501.095,-477.637 496.3,-468.189 494.157,-478.565 501.095,-477.637"/>
</g>
<!-- 52 -->
<g id="node53" class="node"><title>52</title>
<path fill="none" stroke="#d86656" stroke-width="2" d="M606,-540C606,-540 534,-540 534,-540 528,-540 522,-534 522,-528 522,-528 522,-516 522,-516 522,-510 528,-504 534,-504 534,-504 606,-504 606,-504 612,-504 618,-510 618,-516 618,-516 618,-528 618,-528 618,-534 612,-540 606,-540"/>
<text text-anchor="middle" x="570" y="-519.5" font-family="sans" font-size="10.00">create_params_L5</text>
</g>
<!-- 51&#45;&gt;52 -->
<g id="edge84" class="edge"><title>51&#45;&gt;52</title>
<path fill="none" stroke="grey" stroke-width="2" d="M527.09,-575.697C533.923,-567.305 542.257,-557.07 549.756,-547.861"/>
<polygon fill="grey" stroke="grey" stroke-width="2" points="552.472,-550.069 556.072,-540.104 547.044,-545.649 552.472,-550.069"/>
</g>
<!-- 52&#45;&gt;6 -->
<g id="edge22" class="edge"><title>52&#45;&gt;6</title>
<path fill="none" stroke="grey" stroke-width="2" d="M551.213,-503.697C541.826,-495.05 530.316,-484.449 520.087,-475.027"/>
<polygon fill="grey" stroke="grey" stroke-width="2" points="522.297,-472.305 512.57,-468.104 517.555,-477.454 522.297,-472.305"/>
</g>
</g>
</svg>
